<svg width="66" height="66" viewBox="0 0 66 66" fill="none" xmlns="http://www.w3.org/2000/svg">
<path d="M25.0278 10.9996C27.1152 8.95645 29.6403 7.41515 32.4117 6.49243C35.1831 5.56972 38.1281 5.28978 41.0237 5.67383C43.9193 6.05788 46.6895 7.09584 49.1245 8.7091C51.5596 10.3224 53.5955 12.4686 55.0782 14.9853C56.5609 17.5019 57.4515 20.323 57.6824 23.2348C57.9133 26.1466 57.4786 29.0728 56.4111 31.7917C55.3437 34.5106 53.6715 36.9509 51.5212 38.9279C49.3709 40.9048 46.7989 42.3664 44 43.2021V48.1246C44.0003 50.7797 43.1466 53.3646 41.565 55.4973C39.9835 57.63 37.7579 59.1975 35.217 59.9682C32.6762 60.7389 29.9548 60.672 27.455 59.7772C24.9551 58.8825 22.8093 57.2075 21.3345 54.9996M27.5001 44H11.0001M27.5001 22L11.0001 22M22.0001 33L5.50006 33" stroke="black" stroke-width="8" stroke-linecap="round" stroke-linejoin="round"/>
</svg>
