<svg width="120" height="140" viewBox="0 0 120 140" fill="none" xmlns="http://www.w3.org/2000/svg">
<rect width="120" height="140" rx="10" fill="#7BB7F7" fill-opacity="0.4"/>
<circle cx="59.5" cy="59.5" r="31.5" stroke="white" stroke-width="8"/>
<path d="M60.7101 33.2349C60.1866 36.1752 49.46 39.2112 60.7102 41.3213C71.9604 43.4315 52.9095 46.4491 52.9095 46.4491" stroke="white" stroke-width="3.5" stroke-linecap="round"/>
<path d="M71.4307 59.5C71.4138 59.6352 71.3831 59.5972 71.284 59.6467M48.2864 59.7926C48.2695 59.9278 48.2387 59.8898 48.1396 59.9393M53.6311 69.2819C58.2776 72.9901 61.1005 73.1462 66.4111 69.2819" stroke="white" stroke-width="5.5" stroke-linecap="round"/>
<path d="M44.7734 119.756C44.5814 119.756 44.4334 119.708 44.3294 119.612C44.2254 119.516 44.1734 119.38 44.1734 119.204C44.1734 119.028 44.2254 118.892 44.3294 118.796C44.4334 118.7 44.5814 118.652 44.7734 118.652H45.5654C45.4374 118.524 45.3734 118.308 45.3734 118.004V115.892H44.7974C44.6054 115.892 44.4574 115.844 44.3534 115.748C44.2494 115.652 44.1974 115.516 44.1974 115.34C44.1974 115.164 44.2494 115.028 44.3534 114.932C44.4574 114.836 44.6054 114.788 44.7974 114.788H50.1134C50.3054 114.788 50.4534 114.836 50.5574 114.932C50.6614 115.028 50.7134 115.164 50.7134 115.34C50.7134 115.516 50.6614 115.652 50.5574 115.748C50.4534 115.844 50.3054 115.892 50.1134 115.892H49.4774V118.004C49.4774 118.308 49.4134 118.524 49.2854 118.652H50.1374C50.3294 118.652 50.4774 118.7 50.5814 118.796C50.6854 118.892 50.7374 119.028 50.7374 119.204C50.7374 119.38 50.6854 119.516 50.5814 119.612C50.4774 119.708 50.3294 119.756 50.1374 119.756H44.7734ZM49.9574 125.996C49.3734 125.996 48.8574 125.876 48.4094 125.636C47.9614 125.404 47.6094 125.084 47.3534 124.676C47.1054 124.268 46.9814 123.812 46.9814 123.308C46.9814 122.796 47.1094 122.336 47.3654 121.928C47.6214 121.52 47.9774 121.204 48.4334 120.98C48.8894 120.748 49.3974 120.632 49.9574 120.632C50.5174 120.632 51.0254 120.748 51.4814 120.98C51.9374 121.204 52.2934 121.52 52.5494 121.928C52.8054 122.336 52.9334 122.796 52.9334 123.308C52.9334 123.812 52.8054 124.268 52.5494 124.676C52.3014 125.084 51.9534 125.404 51.5054 125.636C51.0574 125.876 50.5414 125.996 49.9574 125.996ZM49.9574 124.94C50.4774 124.94 50.9014 124.788 51.2294 124.484C51.5654 124.18 51.7334 123.788 51.7334 123.308C51.7334 122.828 51.5654 122.44 51.2294 122.144C50.9014 121.84 50.4774 121.688 49.9574 121.688C49.4374 121.688 49.0094 121.84 48.6734 122.144C48.3454 122.44 48.1814 122.828 48.1814 123.308C48.1814 123.788 48.3454 124.18 48.6734 124.484C49.0094 124.788 49.4374 124.94 49.9574 124.94ZM47.7254 118.664C47.8854 118.664 48.0094 118.616 48.0974 118.52C48.1854 118.424 48.2294 118.292 48.2294 118.124V115.892H46.6214V118.124C46.6214 118.292 46.6654 118.424 46.7534 118.52C46.8414 118.616 46.9654 118.664 47.1254 118.664H47.7254ZM52.5014 120.548C52.3094 120.548 52.1614 120.496 52.0574 120.392C51.9534 120.288 51.9014 120.14 51.9014 119.948V118.616H50.9654C50.7814 118.616 50.6374 118.572 50.5334 118.484C50.4374 118.388 50.3894 118.252 50.3894 118.076C50.3894 117.9 50.4374 117.764 50.5334 117.668C50.6374 117.572 50.7814 117.524 50.9654 117.524H51.9014V116.996H50.9654C50.7814 116.996 50.6374 116.952 50.5334 116.864C50.4374 116.768 50.3894 116.632 50.3894 116.456C50.3894 116.28 50.4374 116.144 50.5334 116.048C50.6374 115.952 50.7814 115.904 50.9654 115.904H51.9014V114.932C51.9014 114.74 51.9534 114.592 52.0574 114.488C52.1614 114.384 52.3094 114.332 52.5014 114.332H52.5494C52.7414 114.332 52.8894 114.384 52.9934 114.488C53.0974 114.592 53.1494 114.74 53.1494 114.932V119.948C53.1494 120.14 53.0974 120.288 52.9934 120.392C52.8894 120.496 52.7414 120.548 52.5494 120.548H52.5014ZM55.5005 121.34C55.3085 121.34 55.1605 121.292 55.0565 121.196C54.9525 121.1 54.9005 120.964 54.9005 120.788C54.9005 120.612 54.9525 120.48 55.0565 120.392C55.1605 120.296 55.3085 120.248 55.5005 120.248H59.3885V119.3C58.5965 119.204 57.9725 118.94 57.5165 118.508C57.0685 118.068 56.8445 117.52 56.8445 116.864C56.8445 116.392 56.9685 115.972 57.2165 115.604C57.4725 115.228 57.8365 114.936 58.3085 114.728C58.7885 114.512 59.3525 114.404 60.0005 114.404C60.6485 114.404 61.2085 114.512 61.6805 114.728C62.1605 114.936 62.5245 115.228 62.7725 115.604C63.0285 115.972 63.1565 116.392 63.1565 116.864C63.1565 117.52 62.9285 118.068 62.4725 118.508C62.0245 118.94 61.4085 119.204 60.6245 119.3V120.248H64.5005C64.6925 120.248 64.8405 120.296 64.9445 120.392C65.0485 120.48 65.1005 120.612 65.1005 120.788C65.1005 120.964 65.0485 121.1 64.9445 121.196C64.8405 121.292 64.6925 121.34 64.5005 121.34H55.5005ZM60.1925 125.612C59.0565 125.612 58.1845 125.396 57.5765 124.964C56.9765 124.524 56.6765 123.884 56.6765 123.044V122.768C56.6765 122.576 56.7285 122.428 56.8325 122.324C56.9365 122.22 57.0845 122.168 57.2765 122.168H57.3245C57.5165 122.168 57.6645 122.22 57.7685 122.324C57.8725 122.428 57.9245 122.576 57.9245 122.768V122.996C57.9245 123.524 58.1045 123.908 58.4645 124.148C58.8325 124.388 59.4085 124.508 60.1925 124.508C60.6165 124.508 61.0605 124.468 61.5245 124.388C61.9965 124.308 62.4085 124.2 62.7605 124.064C62.8245 124.032 62.9125 124.016 63.0245 124.016C63.1685 124.016 63.2925 124.072 63.3965 124.184C63.5005 124.288 63.5525 124.424 63.5525 124.592C63.5525 124.84 63.4045 125.016 63.1085 125.12C62.6845 125.28 62.2205 125.4 61.7165 125.48C61.2205 125.568 60.7125 125.612 60.1925 125.612ZM60.0005 118.256C60.5925 118.256 61.0645 118.128 61.4165 117.872C61.7765 117.616 61.9565 117.28 61.9565 116.864C61.9565 116.456 61.7765 116.124 61.4165 115.868C61.0645 115.612 60.5925 115.484 60.0005 115.484C59.4085 115.484 58.9325 115.612 58.5725 115.868C58.2205 116.124 58.0445 116.456 58.0445 116.864C58.0445 117.28 58.2205 117.616 58.5725 117.872C58.9325 118.128 59.4085 118.256 60.0005 118.256ZM69.7915 125.708C69.2875 125.708 68.8875 125.568 68.5915 125.288C68.3035 125.008 68.1595 124.616 68.1595 124.112V122.744C68.1595 122.488 68.2355 122.284 68.3875 122.132C68.5475 121.98 68.7515 121.904 68.9995 121.904H73.9195C74.1755 121.904 74.3795 121.98 74.5315 122.132C74.6835 122.284 74.7595 122.488 74.7595 122.744V124.112C74.7595 124.624 74.6315 125.016 74.3755 125.288C74.1195 125.568 73.7435 125.708 73.2475 125.708H69.7915ZM72.9715 124.604C73.1315 124.604 73.2595 124.556 73.3555 124.46C73.4595 124.356 73.5115 124.224 73.5115 124.064V123.188C73.5115 123.14 73.4915 123.1 73.4515 123.068C73.4195 123.028 73.3795 123.008 73.3315 123.008H69.5875C69.5395 123.008 69.4955 123.028 69.4555 123.068C69.4235 123.1 69.4075 123.14 69.4075 123.188V124.064C69.4075 124.224 69.4555 124.356 69.5515 124.46C69.6555 124.556 69.7875 124.604 69.9475 124.604H72.9715ZM69.6235 121.088C69.1515 121.088 68.7275 121.008 68.3515 120.848C67.9835 120.688 67.6955 120.464 67.4875 120.176C67.2795 119.888 67.1755 119.564 67.1755 119.204C67.1755 118.844 67.2795 118.52 67.4875 118.232C67.6955 117.936 67.9835 117.704 68.3515 117.536C68.7275 117.368 69.1515 117.284 69.6235 117.284C70.0875 117.284 70.5075 117.368 70.8835 117.536C71.2595 117.704 71.5515 117.936 71.7595 118.232C71.9755 118.52 72.0835 118.844 72.0835 119.204C72.0835 119.564 71.9795 119.888 71.7715 120.176C71.5635 120.456 71.2715 120.68 70.8955 120.848C70.5195 121.008 70.0955 121.088 69.6235 121.088ZM69.6355 120.128C69.9875 120.128 70.2835 120.036 70.5235 119.852C70.7635 119.668 70.8835 119.448 70.8835 119.192C70.8835 118.92 70.7635 118.696 70.5235 118.52C70.2915 118.336 69.9955 118.244 69.6355 118.244C69.2675 118.244 68.9635 118.332 68.7235 118.508C68.4835 118.684 68.3635 118.912 68.3635 119.192C68.3635 119.456 68.4835 119.68 68.7235 119.864C68.9715 120.04 69.2755 120.128 69.6355 120.128ZM66.8995 116.924C66.4995 116.924 66.2995 116.756 66.2995 116.42C66.2995 116.076 66.4995 115.904 66.8995 115.904H72.2995C72.6995 115.904 72.8995 116.076 72.8995 116.42C72.8995 116.756 72.6995 116.924 72.2995 116.924H66.8995ZM69.2275 115.436C68.7715 115.436 68.4315 115.424 68.2075 115.4C67.9915 115.368 67.7955 115.296 67.6195 115.184L67.4755 115.1C67.4035 115.052 67.3475 114.992 67.3075 114.92C67.2675 114.84 67.2475 114.76 67.2475 114.68C67.2475 114.552 67.2835 114.44 67.3555 114.344C67.4515 114.216 67.5835 114.152 67.7515 114.152C67.8715 114.152 67.9835 114.18 68.0875 114.236L68.2555 114.32C68.3995 114.392 68.6755 114.428 69.0835 114.428H71.3035C71.6955 114.428 71.8915 114.6 71.8915 114.944C71.8915 115.272 71.6915 115.436 71.2915 115.436H69.2275ZM74.0995 121.256C73.9075 121.256 73.7595 121.204 73.6555 121.1C73.5515 120.996 73.4995 120.848 73.4995 120.656V114.932C73.4995 114.74 73.5515 114.592 73.6555 114.488C73.7595 114.384 73.9075 114.332 74.0995 114.332H74.1475C74.3395 114.332 74.4875 114.384 74.5915 114.488C74.6955 114.592 74.7475 114.74 74.7475 114.932V117.26H75.8995C76.0915 117.26 76.2395 117.308 76.3435 117.404C76.4475 117.5 76.4995 117.636 76.4995 117.812C76.4995 117.988 76.4475 118.124 76.3435 118.22C76.2395 118.308 76.0915 118.352 75.8995 118.352H74.7475V120.656C74.7475 120.848 74.6955 120.996 74.5915 121.1C74.4875 121.204 74.3395 121.256 74.1475 121.256H74.0995Z" fill="black"/>
</svg>
