<svg width="120" height="140" viewBox="0 0 120 140" fill="none" xmlns="http://www.w3.org/2000/svg">
<rect width="120" height="140" rx="10" fill="#FF9447" fill-opacity="0.4"/>
<path d="M48.1894 122.84C47.3414 122.84 46.6534 122.78 46.1254 122.66C45.5974 122.548 45.2054 122.36 44.9494 122.096C44.7014 121.832 44.5774 121.48 44.5774 121.04V120.644C44.5774 120.388 44.6534 120.184 44.8054 120.032C44.9654 119.88 45.1694 119.804 45.4174 119.804H49.9174C49.9734 119.804 50.0094 119.796 50.0254 119.78C50.0494 119.756 50.0614 119.716 50.0614 119.66V119.18C50.0614 119.076 50.0094 119.024 49.9054 119.024H45.1294C44.9374 119.024 44.7894 118.976 44.6854 118.88C44.5814 118.784 44.5294 118.648 44.5294 118.472C44.5294 118.296 44.5814 118.16 44.6854 118.064C44.7894 117.968 44.9374 117.92 45.1294 117.92H47.3374V117.104H43.4614C43.2694 117.104 43.1214 117.056 43.0174 116.96C42.9134 116.864 42.8614 116.728 42.8614 116.552C42.8614 116.376 42.9134 116.24 43.0174 116.144C43.1214 116.048 43.2694 116 43.4614 116H52.4614C52.6534 116 52.8014 116.048 52.9054 116.144C53.0094 116.24 53.0614 116.376 53.0614 116.552C53.0614 116.728 53.0094 116.864 52.9054 116.96C52.8014 117.056 52.6534 117.104 52.4614 117.104H48.5854V117.92H50.4694C50.7254 117.92 50.9294 117.996 51.0814 118.148C51.2334 118.3 51.3094 118.504 51.3094 118.76V120.056C51.3094 120.28 51.2414 120.46 51.1054 120.596C50.9694 120.732 50.7894 120.8 50.5654 120.8H45.9814C45.8774 120.8 45.8254 120.852 45.8254 120.956V121.1C45.8254 121.348 46.0014 121.516 46.3534 121.604C46.7214 121.692 47.3134 121.736 48.1294 121.736C48.5774 121.736 49.0374 121.712 49.5094 121.664C49.9894 121.616 50.4174 121.544 50.7934 121.448L50.9854 121.424C51.1134 121.424 51.2214 121.464 51.3094 121.544C51.3974 121.624 51.4574 121.736 51.4894 121.88C51.5134 122.04 51.4814 122.176 51.3934 122.288C51.3054 122.4 51.1694 122.48 50.9854 122.528C50.6014 122.624 50.1494 122.7 49.6294 122.756C49.1174 122.812 48.6374 122.84 48.1894 122.84ZM49.6174 114.236C49.7774 114.236 49.8934 114.204 49.9654 114.14C50.0374 114.068 50.0734 113.952 50.0734 113.792V113.444H45.8494V113.792C45.8494 113.952 45.8854 114.068 45.9574 114.14C46.0294 114.204 46.1454 114.236 46.3054 114.236H49.6174ZM46.1134 115.304C45.6014 115.304 45.2214 115.188 44.9734 114.956C44.7254 114.716 44.6014 114.348 44.6014 113.852V112.184C44.6014 111.992 44.6534 111.844 44.7574 111.74C44.8614 111.636 45.0094 111.584 45.2014 111.584H45.2494C45.4414 111.584 45.5894 111.636 45.6934 111.74C45.7974 111.844 45.8494 111.992 45.8494 112.184V112.448H50.0734V112.184C50.0734 111.992 50.1254 111.844 50.2294 111.74C50.3334 111.636 50.4814 111.584 50.6734 111.584H50.7214C50.9134 111.584 51.0614 111.636 51.1654 111.74C51.2694 111.844 51.3214 111.992 51.3214 112.184V113.852C51.3214 114.364 51.2134 114.736 50.9974 114.968C50.7814 115.192 50.4254 115.304 49.9294 115.304H46.1134ZM54.8125 117.176C54.6205 117.176 54.4725 117.128 54.3685 117.032C54.2645 116.936 54.2125 116.8 54.2125 116.624C54.2125 116.448 54.2645 116.312 54.3685 116.216C54.4725 116.12 54.6205 116.072 54.8125 116.072H55.6045C55.4765 115.944 55.4125 115.728 55.4125 115.424V112.892H54.8365C54.6445 112.892 54.4965 112.844 54.3925 112.748C54.2885 112.652 54.2365 112.516 54.2365 112.34C54.2365 112.164 54.2885 112.028 54.3925 111.932C54.4965 111.836 54.6445 111.788 54.8365 111.788H60.1525C60.3445 111.788 60.4925 111.836 60.5965 111.932C60.7005 112.028 60.7525 112.164 60.7525 112.34C60.7525 112.516 60.7005 112.652 60.5965 112.748C60.4925 112.844 60.3445 112.892 60.1525 112.892H59.5165V115.424C59.5165 115.728 59.4525 115.944 59.3245 116.072H60.1765C60.3685 116.072 60.5165 116.12 60.6205 116.216C60.7245 116.312 60.7765 116.448 60.7765 116.624C60.7765 116.8 60.7245 116.936 60.6205 117.032C60.5165 117.128 60.3685 117.176 60.1765 117.176H54.8125ZM59.8525 122.612C58.6605 122.612 57.7525 122.352 57.1285 121.832C56.5045 121.312 56.1925 120.588 56.1925 119.66V119.216C56.1925 119.024 56.2445 118.876 56.3485 118.772C56.4525 118.668 56.6005 118.616 56.7925 118.616H56.8405C57.0325 118.616 57.1805 118.668 57.2845 118.772C57.3885 118.876 57.4405 119.024 57.4405 119.216V119.612C57.4405 120.236 57.6325 120.708 58.0165 121.028C58.4005 121.348 59.0125 121.508 59.8525 121.508C60.3005 121.508 60.7565 121.464 61.2205 121.376C61.6845 121.28 62.0965 121.152 62.4565 120.992C62.5525 120.952 62.6405 120.932 62.7205 120.932C62.8645 120.932 62.9885 120.988 63.0925 121.1C63.1965 121.212 63.2485 121.352 63.2485 121.52C63.2485 121.744 63.1005 121.92 62.8045 122.048C61.9165 122.424 60.9325 122.612 59.8525 122.612ZM57.7645 116.084C57.9245 116.084 58.0485 116.036 58.1365 115.94C58.2245 115.844 58.2685 115.712 58.2685 115.544V112.892H56.6605V115.544C56.6605 115.712 56.7045 115.844 56.7925 115.94C56.8805 116.036 57.0045 116.084 57.1645 116.084H57.7645ZM62.5405 119.132C62.3485 119.132 62.2005 119.08 62.0965 118.976C61.9925 118.872 61.9405 118.724 61.9405 118.532V115.928H61.0045C60.8205 115.928 60.6765 115.884 60.5725 115.796C60.4765 115.7 60.4285 115.564 60.4285 115.388C60.4285 115.212 60.4765 115.076 60.5725 114.98C60.6765 114.884 60.8205 114.836 61.0045 114.836H61.9405V114.068H61.0045C60.8205 114.068 60.6765 114.024 60.5725 113.936C60.4765 113.84 60.4285 113.704 60.4285 113.528C60.4285 113.352 60.4765 113.216 60.5725 113.12C60.6765 113.024 60.8205 112.976 61.0045 112.976H61.9405V111.932C61.9405 111.74 61.9925 111.592 62.0965 111.488C62.2005 111.384 62.3485 111.332 62.5405 111.332H62.5885C62.7805 111.332 62.9285 111.384 63.0325 111.488C63.1365 111.592 63.1885 111.74 63.1885 111.932V118.532C63.1885 118.724 63.1365 118.872 63.0325 118.976C62.9285 119.08 62.7805 119.132 62.5885 119.132H62.5405ZM68.7915 122.708C68.2875 122.708 67.8875 122.568 67.5915 122.288C67.3035 122.008 67.1595 121.616 67.1595 121.112V119.744C67.1595 119.488 67.2355 119.284 67.3875 119.132C67.5475 118.98 67.7515 118.904 67.9995 118.904H72.9195C73.1755 118.904 73.3795 118.98 73.5315 119.132C73.6835 119.284 73.7595 119.488 73.7595 119.744V121.112C73.7595 121.624 73.6315 122.016 73.3755 122.288C73.1195 122.568 72.7435 122.708 72.2475 122.708H68.7915ZM71.9715 121.604C72.1315 121.604 72.2595 121.556 72.3555 121.46C72.4595 121.356 72.5115 121.224 72.5115 121.064V120.188C72.5115 120.14 72.4915 120.1 72.4515 120.068C72.4195 120.028 72.3795 120.008 72.3315 120.008H68.5875C68.5395 120.008 68.4955 120.028 68.4555 120.068C68.4235 120.1 68.4075 120.14 68.4075 120.188V121.064C68.4075 121.224 68.4555 121.356 68.5515 121.46C68.6555 121.556 68.7875 121.604 68.9475 121.604H71.9715ZM68.6235 118.088C68.1515 118.088 67.7275 118.008 67.3515 117.848C66.9835 117.688 66.6955 117.464 66.4875 117.176C66.2795 116.888 66.1755 116.564 66.1755 116.204C66.1755 115.844 66.2795 115.52 66.4875 115.232C66.6955 114.936 66.9835 114.704 67.3515 114.536C67.7275 114.368 68.1515 114.284 68.6235 114.284C69.0875 114.284 69.5075 114.368 69.8835 114.536C70.2595 114.704 70.5515 114.936 70.7595 115.232C70.9755 115.52 71.0835 115.844 71.0835 116.204C71.0835 116.564 70.9795 116.888 70.7715 117.176C70.5635 117.456 70.2715 117.68 69.8955 117.848C69.5195 118.008 69.0955 118.088 68.6235 118.088ZM68.6355 117.128C68.9875 117.128 69.2835 117.036 69.5235 116.852C69.7635 116.668 69.8835 116.448 69.8835 116.192C69.8835 115.92 69.7635 115.696 69.5235 115.52C69.2915 115.336 68.9955 115.244 68.6355 115.244C68.2675 115.244 67.9635 115.332 67.7235 115.508C67.4835 115.684 67.3635 115.912 67.3635 116.192C67.3635 116.456 67.4835 116.68 67.7235 116.864C67.9715 117.04 68.2755 117.128 68.6355 117.128ZM65.8995 113.924C65.4995 113.924 65.2995 113.756 65.2995 113.42C65.2995 113.076 65.4995 112.904 65.8995 112.904H71.2995C71.6995 112.904 71.8995 113.076 71.8995 113.42C71.8995 113.756 71.6995 113.924 71.2995 113.924H65.8995ZM68.2275 112.436C67.7715 112.436 67.4315 112.424 67.2075 112.4C66.9915 112.368 66.7955 112.296 66.6195 112.184L66.4755 112.1C66.4035 112.052 66.3475 111.992 66.3075 111.92C66.2675 111.84 66.2475 111.76 66.2475 111.68C66.2475 111.552 66.2835 111.44 66.3555 111.344C66.4515 111.216 66.5835 111.152 66.7515 111.152C66.8715 111.152 66.9835 111.18 67.0875 111.236L67.2555 111.32C67.3995 111.392 67.6755 111.428 68.0835 111.428H70.3035C70.6955 111.428 70.8915 111.6 70.8915 111.944C70.8915 112.272 70.6915 112.436 70.2915 112.436H68.2275ZM73.0995 118.256C72.9075 118.256 72.7595 118.204 72.6555 118.1C72.5515 117.996 72.4995 117.848 72.4995 117.656V111.932C72.4995 111.74 72.5515 111.592 72.6555 111.488C72.7595 111.384 72.9075 111.332 73.0995 111.332H73.1475C73.3395 111.332 73.4875 111.384 73.5915 111.488C73.6955 111.592 73.7475 111.74 73.7475 111.932V114.26H74.8995C75.0915 114.26 75.2395 114.308 75.3435 114.404C75.4475 114.5 75.4995 114.636 75.4995 114.812C75.4995 114.988 75.4475 115.124 75.3435 115.22C75.2395 115.308 75.0915 115.352 74.8995 115.352H73.7475V117.656C73.7475 117.848 73.6955 117.996 73.5915 118.1C73.4875 118.204 73.3395 118.256 73.1475 118.256H73.0995Z" fill="black"/>
<path d="M91.1868 25.2429L83.7416 35.9065C83.2816 36.573 83.5403 37.8025 84.1584 37.8944L89.9722 38.7907L86.4868 46.5586C86.3287 46.9148 86.3503 47.4089 86.5443 47.7192C86.7599 48.0639 87.0976 48.0754 87.3204 47.7422L94.7656 37.0786C95.2256 36.4121 94.9668 35.1826 94.3488 35.0906L88.5349 34.1944L92.0204 26.4265C92.1785 26.0703 92.1569 25.5761 91.9629 25.2659C91.7473 24.9212 91.4095 24.9097 91.1868 25.2429Z" fill="white"/>
<g clip-path="url(#clip0_748_3726)">
<path d="M81.8097 63.6568C81.8097 56.9026 79.1266 50.4252 74.3508 45.6493C69.5749 40.8734 63.0974 38.1903 56.3433 38.1903C49.5892 38.1903 43.1117 40.8734 38.3358 45.6493C33.5599 50.4252 30.8769 56.9026 30.8769 63.6568C30.8769 70.4109 33.5599 76.8884 38.3358 81.6642C43.1117 86.4401 49.5892 89.1232 56.3433 89.1232C63.0974 89.1232 69.5749 86.4401 74.3508 81.6642C79.1266 76.8884 81.8097 70.4109 81.8097 63.6568ZM25 63.6568C25 55.344 28.3022 47.3717 34.1802 41.4937C40.0582 35.6157 48.0305 32.3135 56.3433 32.3135C64.656 32.3135 72.6283 35.6157 78.5063 41.4937C84.3843 47.3717 87.6866 55.344 87.6866 63.6568C87.6866 71.9695 84.3843 79.9418 78.5063 85.8198C72.6283 91.6978 64.656 95 56.3433 95C48.0305 95 40.0582 91.6978 34.1802 85.8198C28.3022 79.9418 25 71.9695 25 63.6568ZM46.6097 71.5293C49.0094 69.301 52.4009 67.5747 56.3433 67.5747C60.2857 67.5747 63.6771 69.301 66.0768 71.5293C68.4031 73.7086 70.056 76.6348 70.056 79.3284C70.056 79.9895 69.7254 80.6017 69.1744 80.969C68.6235 81.3363 67.9256 81.3853 67.3134 81.1282L65.2076 80.2099C62.416 78.9856 59.3919 78.3612 56.3433 78.3612C53.2947 78.3612 50.2705 78.9978 47.479 80.2099L45.3731 81.1282C44.7732 81.3975 44.0631 81.3363 43.5121 80.969C42.9612 80.6017 42.6306 79.9895 42.6306 79.3284C42.6306 76.6348 44.2835 73.7086 46.6097 71.5293ZM41.345 50.2746L52.3519 56.1393C53.662 56.8371 53.662 58.7226 52.3519 59.4205L41.345 65.2851C40.3778 65.7994 39.2024 65.1015 39.2024 63.9996C39.2024 63.6568 39.3249 63.3262 39.5452 63.0691L43.9529 57.7799L39.5452 52.4907C39.3249 52.2336 39.2024 51.903 39.2024 51.5602C39.2024 50.4583 40.3778 49.7604 41.345 50.2746ZM73.4841 51.548C73.4841 51.8908 73.3617 52.2214 73.1413 52.4785L68.7337 57.7676L73.1413 63.0568C73.3617 63.3139 73.4841 63.6445 73.4841 63.9873C73.4841 65.0892 72.3088 65.7871 71.3415 65.2729L60.3347 59.4083C59.0246 58.7104 59.0246 56.8249 60.3347 56.127L71.3415 50.2624C72.3088 49.7482 73.4841 50.4461 73.4841 51.548Z" fill="white"/>
</g>
<defs>
<clipPath id="clip0_748_3726">
<rect width="62.6866" height="62.6866" fill="white" transform="translate(25 32.3135)"/>
</clipPath>
</defs>
</svg>
