<svg width="120" height="140" viewBox="0 0 120 140" fill="none" xmlns="http://www.w3.org/2000/svg">
<rect width="120" height="140" rx="10" fill="#FAD92E" fill-opacity="0.4"/>
<path d="M53.8854 125.852C53.7014 125.852 53.5574 125.8 53.4534 125.696C53.3494 125.592 53.2974 125.444 53.2974 125.252V119.432H51.9654V124.952C51.9654 125.144 51.9134 125.292 51.8094 125.396C51.7134 125.5 51.5734 125.552 51.3894 125.552C51.2054 125.552 51.0614 125.5 50.9574 125.396C50.8534 125.292 50.8014 125.144 50.8014 124.952V115.052C50.8014 114.86 50.8534 114.712 50.9574 114.608C51.0614 114.504 51.2054 114.452 51.3894 114.452C51.5734 114.452 51.7134 114.504 51.8094 114.608C51.9134 114.712 51.9654 114.86 51.9654 115.052V118.34H53.2974V114.932C53.2974 114.74 53.3454 114.592 53.4414 114.488C53.5454 114.384 53.6934 114.332 53.8854 114.332C54.0694 114.332 54.2094 114.384 54.3054 114.488C54.4094 114.592 54.4614 114.74 54.4614 114.932V125.252C54.4614 125.444 54.4094 125.592 54.3054 125.696C54.2094 125.8 54.0694 125.852 53.8854 125.852ZM47.8374 121.916C48.1494 121.916 48.3054 121.76 48.3054 121.448V118.928H46.4934V121.448C46.4934 121.76 46.6494 121.916 46.9614 121.916H47.8374ZM46.7814 123.02C45.7574 123.02 45.2454 122.52 45.2454 121.52V115.568C45.2454 115.376 45.2974 115.228 45.4014 115.124C45.5054 115.02 45.6534 114.968 45.8454 114.968H45.8934C46.0854 114.968 46.2334 115.02 46.3374 115.124C46.4414 115.228 46.4934 115.376 46.4934 115.568V117.824H48.3054V115.568C48.3054 115.376 48.3574 115.228 48.4614 115.124C48.5654 115.02 48.7134 114.968 48.9054 114.968H48.9534C49.1454 114.968 49.2934 115.02 49.3974 115.124C49.5014 115.228 49.5534 115.376 49.5534 115.568V121.52C49.5534 122.032 49.4414 122.412 49.2174 122.66C48.9934 122.9 48.6334 123.02 48.1374 123.02H46.7814ZM56.5005 124.4C56.3085 124.4 56.1605 124.352 56.0565 124.256C55.9525 124.16 55.9005 124.024 55.9005 123.848C55.9005 123.672 55.9525 123.54 56.0565 123.452C56.1605 123.356 56.3085 123.308 56.5005 123.308H59.7765V119.06C59.7765 118.868 59.8285 118.72 59.9325 118.616C60.0365 118.512 60.1845 118.46 60.3765 118.46H60.4245C60.6165 118.46 60.7645 118.512 60.8685 118.616C60.9725 118.72 61.0245 118.868 61.0245 119.06V123.308H65.5005C65.6925 123.308 65.8405 123.356 65.9445 123.452C66.0485 123.54 66.1005 123.672 66.1005 123.848C66.1005 124.024 66.0485 124.16 65.9445 124.256C65.8405 124.352 65.6925 124.4 65.5005 124.4H56.5005ZM62.9925 120.848C62.7925 120.744 62.6925 120.592 62.6925 120.392C62.6925 120.328 62.7125 120.224 62.7525 120.08C62.9205 119.544 63.0325 119.008 63.0885 118.472C63.1445 117.928 63.1725 117.196 63.1725 116.276C63.1725 116.22 63.1525 116.176 63.1125 116.144C63.0805 116.112 63.0405 116.096 62.9925 116.096H58.0725C57.8805 116.096 57.7325 116.048 57.6285 115.952C57.5245 115.856 57.4725 115.72 57.4725 115.544C57.4725 115.368 57.5245 115.232 57.6285 115.136C57.7325 115.04 57.8805 114.992 58.0725 114.992H63.5565C63.8125 114.992 64.0165 115.072 64.1685 115.232C64.3205 115.384 64.3965 115.588 64.3965 115.844C64.3965 117.092 64.3605 118.04 64.2885 118.688C64.2165 119.328 64.0645 119.948 63.8325 120.548C63.7845 120.668 63.7125 120.764 63.6165 120.836C63.5205 120.9 63.4165 120.932 63.3045 120.932C63.1765 120.932 63.0725 120.904 62.9925 120.848ZM68.7515 118.556C68.5595 118.556 68.4115 118.508 68.3075 118.412C68.2035 118.316 68.1515 118.18 68.1515 118.004C68.1515 117.828 68.2035 117.692 68.3075 117.596C68.4115 117.5 68.5595 117.452 68.7515 117.452H69.8195C69.6915 117.324 69.6275 117.108 69.6275 116.804V115.832H68.7755C68.5835 115.832 68.4355 115.784 68.3315 115.688C68.2275 115.592 68.1755 115.456 68.1755 115.28C68.1755 115.104 68.2275 114.968 68.3315 114.872C68.4355 114.776 68.5835 114.728 68.7755 114.728H75.3155C75.5075 114.728 75.6555 114.776 75.7595 114.872C75.8635 114.968 75.9155 115.104 75.9155 115.28C75.9155 115.456 75.8635 115.592 75.7595 115.688C75.6555 115.784 75.5075 115.832 75.3155 115.832H74.4635V116.804C74.4635 117.108 74.3995 117.324 74.2715 117.452H75.3395C75.5315 117.452 75.6795 117.5 75.7835 117.596C75.8875 117.692 75.9395 117.828 75.9395 118.004C75.9395 118.18 75.8875 118.316 75.7835 118.412C75.6795 118.508 75.5315 118.556 75.3395 118.556H68.7515ZM70.2515 125.708C69.7475 125.708 69.3595 125.576 69.0875 125.312C68.8155 125.056 68.6795 124.676 68.6795 124.172V122.36C68.6795 122.104 68.7555 121.9 68.9075 121.748C69.0675 121.596 69.2715 121.52 69.5195 121.52H74.5595C74.8155 121.52 75.0195 121.596 75.1715 121.748C75.3235 121.9 75.3995 122.104 75.3995 122.36V124.172C75.3995 124.684 75.2795 125.068 75.0395 125.324C74.8075 125.58 74.4435 125.708 73.9475 125.708H70.2515ZM73.6715 124.604C73.9915 124.604 74.1515 124.444 74.1515 124.124V122.804C74.1515 122.756 74.1315 122.716 74.0915 122.684C74.0595 122.644 74.0195 122.624 73.9715 122.624H70.1075C70.0595 122.624 70.0155 122.644 69.9755 122.684C69.9435 122.716 69.9275 122.756 69.9275 122.804V124.124C69.9275 124.444 70.0875 124.604 70.4075 124.604H73.6715ZM67.5395 120.56C67.3475 120.56 67.1995 120.512 67.0955 120.416C66.9915 120.32 66.9395 120.184 66.9395 120.008C66.9395 119.832 66.9915 119.696 67.0955 119.6C67.1995 119.504 67.3475 119.456 67.5395 119.456H76.5395C76.7315 119.456 76.8795 119.504 76.9835 119.6C77.0875 119.696 77.1395 119.832 77.1395 120.008C77.1395 120.184 77.0875 120.32 76.9835 120.416C76.8795 120.512 76.7315 120.56 76.5395 120.56H67.5395ZM72.6755 117.464C72.8355 117.464 72.9635 117.416 73.0595 117.32C73.1635 117.216 73.2155 117.084 73.2155 116.924V115.832H70.8755V116.924C70.8755 117.084 70.9235 117.216 71.0195 117.32C71.1235 117.416 71.2555 117.464 71.4155 117.464H72.6755Z" fill="black"/>
<rect x="42" y="48.8748" width="36" height="43.875" rx="7" stroke="white" stroke-width="6"/>
<path d="M52.8423 66.4253C54.4991 66.4253 55.8423 65.0821 55.8423 63.4253C55.8423 61.7684 54.4991 60.4253 52.8423 60.4253V66.4253ZM58.1087 73.1899C59.7656 73.1899 61.1087 71.8467 61.1087 70.1899C61.1087 68.533 59.7656 67.1899 58.1087 67.1899V73.1899ZM52.8423 80.6235C54.4991 80.6235 55.8423 79.2803 55.8423 77.6235C55.8423 75.9666 54.4991 74.6235 52.8423 74.6235V80.6235ZM43.626 66.4253H52.8423V60.4253H43.626V66.4253ZM43.626 73.1899H58.1087V67.1899H43.626V73.1899ZM43.626 80.6235H52.8423V74.6235H43.626V80.6235Z" fill="white"/>
<rect x="45.5" y="37.293" width="27.8333" height="6.58115" rx="3.29057" stroke="white" stroke-width="6"/>
<path d="M53 35.3586V35.3586C53 33.3728 53.4592 31.3968 54.4696 29.6873C58.9264 22.1472 61.9007 22.0759 66.093 29.645C67.057 31.3855 67.4828 33.3691 67.4828 35.3586V35.3586" stroke="white" stroke-width="6"/>
</svg>
