<svg width="42" height="75" viewBox="0 0 65 75" fill="none" xmlns="http://www.w3.org/2000/svg">
<rect x="3" y="27.8748" width="36" height="43.875" rx="7" stroke="black" stroke-width="6"/>
<path d="M13.8425 45.4252C15.4994 45.4252 16.8425 44.082 16.8425 42.4252C16.8425 40.7683 15.4994 39.4252 13.8425 39.4252V45.4252ZM19.109 52.1897C20.7658 52.1897 22.109 50.8466 22.109 49.1897C22.109 47.5329 20.7658 46.1897 19.109 46.1897V52.1897ZM13.8425 59.6233C15.4994 59.6233 16.8425 58.2802 16.8425 56.6233C16.8425 54.9665 15.4994 53.6233 13.8425 53.6233V59.6233ZM4.62622 45.4252H13.8425V39.4252H4.62622V45.4252ZM4.62622 52.1897H19.109V46.1897H4.62622V52.1897ZM4.62622 59.6233H13.8425V53.6233H4.62622V59.6233Z" fill="black"/>
<rect x="6.5" y="16.293" width="27.8333" height="6.58115" rx="3.29057" stroke="black" stroke-width="6"/>
<path d="M14 14.3585V14.3585C14 12.3727 14.4592 10.3967 15.4696 8.68716C19.9264 1.14706 22.9007 1.07581 27.093 8.64491C28.057 10.3854 28.4828 12.3689 28.4828 14.3585V14.3585" stroke="black" stroke-width="6"/>
</svg>
