<svg width="120" height="140" viewBox="0 0 120 140" fill="none" xmlns="http://www.w3.org/2000/svg">
<rect width="120" height="140" rx="10" fill="#FF5D5D" fill-opacity="0.4"/>
<path d="M53.2649 119.096C52.7289 119.096 52.2249 118.968 51.7529 118.712C51.2729 118.448 50.8969 118.064 50.6249 117.56C50.3529 117.048 50.2169 116.444 50.2169 115.748C50.2169 115.052 50.3569 114.448 50.6369 113.936C50.9169 113.44 51.2849 113.064 51.7409 112.808C52.1969 112.544 52.7049 112.412 53.2649 112.412C53.8009 112.412 54.3049 112.54 54.7769 112.796C55.2489 113.06 55.6209 113.448 55.8929 113.96C56.1649 114.472 56.3009 115.068 56.3009 115.748C56.3009 116.452 56.1609 117.06 55.8809 117.572C55.6009 118.068 55.2329 118.448 54.7769 118.712C54.3209 118.968 53.8169 119.096 53.2649 119.096ZM53.2649 118.04C53.6009 118.04 53.9089 117.948 54.1889 117.764C54.4769 117.58 54.7009 117.316 54.8609 116.972C55.0289 116.62 55.1129 116.212 55.1129 115.748C55.1129 115.284 55.0289 114.88 54.8609 114.536C54.6929 114.192 54.4689 113.928 54.1889 113.744C53.9089 113.56 53.6009 113.468 53.2649 113.468C52.9209 113.468 52.6049 113.56 52.3169 113.744C52.0369 113.928 51.8129 114.196 51.6449 114.548C51.4849 114.892 51.4049 115.292 51.4049 115.748C51.4049 116.212 51.4849 116.62 51.6449 116.972C51.8129 117.316 52.0369 117.58 52.3169 117.764C52.6049 117.948 52.9209 118.04 53.2649 118.04ZM58.0409 122.732C57.8489 122.732 57.7009 122.68 57.5969 122.576C57.4929 122.472 57.4409 122.324 57.4409 122.132V111.932C57.4409 111.74 57.4929 111.592 57.5969 111.488C57.7009 111.384 57.8489 111.332 58.0409 111.332H58.0889C58.2809 111.332 58.4289 111.384 58.5329 111.488C58.6369 111.592 58.6889 111.74 58.6889 111.932V115.256H59.8409C60.0329 115.256 60.1809 115.304 60.2849 115.4C60.3889 115.496 60.4409 115.632 60.4409 115.808C60.4409 115.984 60.3889 116.12 60.2849 116.216C60.1809 116.304 60.0329 116.348 59.8409 116.348H58.6889V122.132C58.6889 122.324 58.6369 122.472 58.5329 122.576C58.4289 122.68 58.2809 122.732 58.0889 122.732H58.0409ZM62.732 115.556C62.54 115.556 62.392 115.508 62.288 115.412C62.184 115.316 62.132 115.18 62.132 115.004C62.132 114.828 62.184 114.692 62.288 114.596C62.392 114.5 62.54 114.452 62.732 114.452H63.8C63.672 114.324 63.608 114.108 63.608 113.804V112.832H62.756C62.564 112.832 62.416 112.784 62.312 112.688C62.208 112.592 62.156 112.456 62.156 112.28C62.156 112.104 62.208 111.968 62.312 111.872C62.416 111.776 62.564 111.728 62.756 111.728H69.296C69.488 111.728 69.636 111.776 69.74 111.872C69.844 111.968 69.896 112.104 69.896 112.28C69.896 112.456 69.844 112.592 69.74 112.688C69.636 112.784 69.488 112.832 69.296 112.832H68.444V113.804C68.444 114.108 68.38 114.324 68.252 114.452H69.32C69.512 114.452 69.66 114.5 69.764 114.596C69.868 114.692 69.92 114.828 69.92 115.004C69.92 115.18 69.868 115.316 69.764 115.412C69.66 115.508 69.512 115.556 69.32 115.556H62.732ZM64.232 122.708C63.728 122.708 63.34 122.576 63.068 122.312C62.796 122.056 62.66 121.676 62.66 121.172V119.36C62.66 119.104 62.736 118.9 62.888 118.748C63.048 118.596 63.252 118.52 63.5 118.52H68.54C68.796 118.52 69 118.596 69.152 118.748C69.304 118.9 69.38 119.104 69.38 119.36V121.172C69.38 121.684 69.26 122.068 69.02 122.324C68.788 122.58 68.424 122.708 67.928 122.708H64.232ZM67.652 121.604C67.972 121.604 68.132 121.444 68.132 121.124V119.804C68.132 119.756 68.112 119.716 68.072 119.684C68.04 119.644 68 119.624 67.952 119.624H64.088C64.04 119.624 63.996 119.644 63.956 119.684C63.924 119.716 63.908 119.756 63.908 119.804V121.124C63.908 121.444 64.068 121.604 64.388 121.604H67.652ZM61.52 117.56C61.328 117.56 61.18 117.512 61.076 117.416C60.972 117.32 60.92 117.184 60.92 117.008C60.92 116.832 60.972 116.696 61.076 116.6C61.18 116.504 61.328 116.456 61.52 116.456H70.52C70.712 116.456 70.86 116.504 70.964 116.6C71.068 116.696 71.12 116.832 71.12 117.008C71.12 117.184 71.068 117.32 70.964 117.416C70.86 117.512 70.712 117.56 70.52 117.56H61.52ZM66.656 114.464C66.816 114.464 66.944 114.416 67.04 114.32C67.144 114.216 67.196 114.084 67.196 113.924V112.832H64.856V113.924C64.856 114.084 64.904 114.216 65 114.32C65.104 114.416 65.236 114.464 65.396 114.464H66.656Z" fill="black"/>
<path d="M62.875 66.8305V35.875H56.125V66.8305C52.1965 68.2244 49.375 71.974 49.375 76.375C49.375 81.9573 53.9177 86.5 59.5 86.5C65.0823 86.5 69.625 81.9573 69.625 76.375C69.625 71.974 66.8035 68.2244 62.875 66.8305ZM59.5 79.75C57.637 79.75 56.125 78.238 56.125 76.375C56.125 74.512 57.637 73 59.5 73C61.363 73 62.875 74.512 62.875 76.375C62.875 78.238 61.363 79.75 59.5 79.75ZM76.375 59.8746V35.875C76.375 26.5701 68.8049 19 59.5 19C50.1951 19 42.625 26.5701 42.625 35.875V59.8746C38.3185 64.279 35.875 70.2123 35.875 76.375C35.875 89.3991 46.4759 100 59.5 100C72.5241 100 83.125 89.3991 83.125 76.375C83.125 70.2123 80.6815 64.279 76.375 59.8746ZM59.5 93.25C50.1951 93.25 42.625 85.6799 42.625 76.375C42.625 71.6095 44.677 67.033 48.2545 63.8234L49.375 62.8176V35.875C49.375 30.2927 53.9177 25.75 59.5 25.75C65.0823 25.75 69.625 30.2927 69.625 35.875V62.8176L70.7455 63.8234C74.323 67.033 76.375 71.6095 76.375 76.375C76.375 85.6799 68.8049 93.25 59.5 93.25Z" fill="white"/>
</svg>
