<svg width="81" height="81" viewBox="0 0 81 81" fill="none" xmlns="http://www.w3.org/2000/svg">
<path d="M43.875 47.8305V16.875H37.125V47.8305C33.1965 49.2244 30.375 52.974 30.375 57.375C30.375 62.9572 34.9177 67.5 40.5 67.5C46.0823 67.5 50.625 62.9572 50.625 57.375C50.625 52.974 47.8035 49.2244 43.875 47.8305ZM40.5 60.75C38.637 60.75 37.125 59.238 37.125 57.375C37.125 55.512 38.637 54 40.5 54C42.363 54 43.875 55.512 43.875 57.375C43.875 59.238 42.363 60.75 40.5 60.75ZM57.375 40.8746V16.875C57.375 7.57013 49.8049 0 40.5 0C31.1951 0 23.625 7.57013 23.625 16.875V40.8746C19.3185 45.279 16.875 51.2122 16.875 57.375C16.875 70.3991 27.4759 81 40.5 81C53.5241 81 64.125 70.3991 64.125 57.375C64.125 51.2122 61.6815 45.279 57.375 40.8746ZM40.5 74.25C31.1951 74.25 23.625 66.6799 23.625 57.375C23.625 52.6095 25.677 48.033 29.2545 44.8234L30.375 43.8176V16.875C30.375 11.2927 34.9177 6.75 40.5 6.75C46.0823 6.75 50.625 11.2927 50.625 16.875V43.8176L51.7455 44.8234C55.323 48.033 57.375 52.6095 57.375 57.375C57.375 66.6799 49.8049 74.25 40.5 74.25Z" fill="black"/>
</svg>
