<svg width="56" height="95" viewBox="0 0 56 95" fill="none" xmlns="http://www.w3.org/2000/svg">
<path d="M4.637 57.936C3.357 57.936 2.37567 57.584 1.693 56.88C1.03167 56.1547 0.701 55.2267 0.701 54.096C0.701 53.4347 0.829 52.8587 1.085 52.368C1.36233 51.8773 1.693 51.44 2.077 51.056C2.461 50.672 2.83433 50.3093 3.197 49.968L10.909 42.416L10.717 41.808H4.317C3.33567 41.808 2.525 41.5093 1.885 40.912C1.26633 40.2933 0.935667 39.44 0.893 38.352C0.871667 37.2853 1.19167 36.4213 1.853 35.76C2.51433 35.0987 3.33567 34.768 4.317 34.768H14.973C16.189 34.768 17.0957 35.0773 17.693 35.696C18.2903 36.3147 18.589 37.1893 18.589 38.32C18.589 39.1307 18.365 39.8987 17.917 40.624C17.469 41.328 16.9677 41.9467 16.413 42.48L8.221 50.544C7.965 50.8 7.84767 51.0773 7.869 51.376C7.89033 51.6533 8.01833 51.8667 8.253 52.016C8.509 52.1653 8.829 52.1653 9.213 52.016C9.917 51.7173 10.5783 51.408 11.197 51.088C11.8157 50.768 12.4237 50.5013 13.021 50.288C13.6397 50.0533 14.2797 49.936 14.941 49.936C16.3917 49.936 17.4797 50.3307 18.205 51.12C18.9303 51.888 19.293 52.8373 19.293 53.968C19.293 55.0987 18.9303 56.048 18.205 56.816C17.4797 57.5627 16.3917 57.936 14.941 57.936H4.637Z" fill="black"/>
<path d="M32.9555 80.904C31.0355 80.904 29.5635 80.376 28.5395 79.32C27.5475 78.232 27.0515 76.84 27.0515 75.144C27.0515 74.152 27.2435 73.288 27.6275 72.552C28.0435 71.816 28.5395 71.16 29.1155 70.584C29.6915 70.008 30.2515 69.464 30.7955 68.952L42.3635 57.624L42.0755 56.712H32.4755C31.0035 56.712 29.7875 56.264 28.8275 55.368C27.8995 54.44 27.4035 53.16 27.3395 51.528C27.3075 49.928 27.7875 48.632 28.7795 47.64C29.7715 46.648 31.0035 46.152 32.4755 46.152H48.4595C50.2835 46.152 51.6435 46.616 52.5395 47.544C53.4355 48.472 53.8835 49.784 53.8835 51.48C53.8835 52.696 53.5475 53.848 52.8755 54.936C52.2035 55.992 51.4515 56.92 50.6195 57.72L38.3315 69.816C37.9475 70.2 37.7715 70.616 37.8035 71.064C37.8355 71.48 38.0275 71.8 38.3795 72.024C38.7635 72.248 39.2435 72.248 39.8195 72.024C40.8755 71.576 41.8675 71.112 42.7955 70.632C43.7235 70.152 44.6355 69.752 45.5315 69.432C46.4595 69.08 47.4195 68.904 48.4115 68.904C50.5875 68.904 52.2195 69.496 53.3075 70.68C54.3955 71.832 54.9395 73.256 54.9395 74.952C54.9395 76.648 54.3955 78.072 53.3075 79.224C52.2195 80.344 50.5875 80.904 48.4115 80.904H32.9555Z" fill="black"/>
<path d="M27.637 36.936C26.357 36.936 25.3757 36.584 24.693 35.88C24.0317 35.1547 23.701 34.2267 23.701 33.096C23.701 32.4347 23.829 31.8587 24.085 31.368C24.3623 30.8773 24.693 30.44 25.077 30.056C25.461 29.672 25.8343 29.3093 26.197 28.968L33.909 21.416L33.717 20.808H27.317C26.3357 20.808 25.525 20.5093 24.885 19.912C24.2663 19.2933 23.9357 18.44 23.893 17.352C23.8717 16.2853 24.1917 15.4213 24.853 14.76C25.5143 14.0987 26.3357 13.768 27.317 13.768H37.973C39.189 13.768 40.0957 14.0773 40.693 14.696C41.2903 15.3147 41.589 16.1893 41.589 17.32C41.589 18.1307 41.365 18.8987 40.917 19.624C40.469 20.328 39.9677 20.9467 39.413 21.48L31.221 29.544C30.965 29.8 30.8477 30.0773 30.869 30.376C30.8903 30.6533 31.0183 30.8667 31.253 31.016C31.509 31.1653 31.829 31.1653 32.213 31.016C32.917 30.7173 33.5783 30.408 34.197 30.088C34.8157 29.768 35.4237 29.5013 36.021 29.288C36.6397 29.0533 37.2797 28.936 37.941 28.936C39.3917 28.936 40.4797 29.3307 41.205 30.12C41.9303 30.888 42.293 31.8373 42.293 32.968C42.293 34.0987 41.9303 35.048 41.205 35.816C40.4797 36.5627 39.3917 36.936 37.941 36.936H27.637Z" fill="black"/>
</svg>
