<svg width="120" height="140" viewBox="0 0 120 140" fill="none" xmlns="http://www.w3.org/2000/svg">
<rect width="120" height="140" rx="10" fill="#E3A6FF" fill-opacity="0.4"/>
<path d="M36.887 69.936C35.607 69.936 34.6257 69.584 33.943 68.88C33.2817 68.1547 32.951 67.2267 32.951 66.096C32.951 65.4347 33.079 64.8587 33.335 64.368C33.6123 63.8773 33.943 63.44 34.327 63.056C34.711 62.672 35.0843 62.3093 35.447 61.968L43.159 54.416L42.967 53.808H36.567C35.5857 53.808 34.775 53.5093 34.135 52.912C33.5163 52.2933 33.1857 51.44 33.143 50.352C33.1217 49.2853 33.4417 48.4213 34.103 47.76C34.7643 47.0987 35.5857 46.768 36.567 46.768H47.223C48.439 46.768 49.3457 47.0773 49.943 47.696C50.5403 48.3147 50.839 49.1893 50.839 50.32C50.839 51.1307 50.615 51.8987 50.167 52.624C49.719 53.328 49.2177 53.9467 48.663 54.48L40.471 62.544C40.215 62.8 40.0977 63.0773 40.119 63.376C40.1403 63.6533 40.2683 63.8667 40.503 64.016C40.759 64.1653 41.079 64.1653 41.463 64.016C42.167 63.7173 42.8283 63.408 43.447 63.088C44.0657 62.768 44.6737 62.5013 45.271 62.288C45.8897 62.0533 46.5297 61.936 47.191 61.936C48.6417 61.936 49.7297 62.3307 50.455 63.12C51.1803 63.888 51.543 64.8373 51.543 65.968C51.543 67.0987 51.1803 68.048 50.455 68.816C49.7297 69.5627 48.6417 69.936 47.191 69.936H36.887Z" fill="white"/>
<path d="M65.3305 92.904C63.4105 92.904 61.9385 92.376 60.9145 91.32C59.9225 90.232 59.4265 88.84 59.4265 87.144C59.4265 86.152 59.6185 85.288 60.0025 84.552C60.4185 83.816 60.9145 83.16 61.4905 82.584C62.0665 82.008 62.6265 81.464 63.1705 80.952L74.7385 69.624L74.4505 68.712H64.8505C63.3785 68.712 62.1625 68.264 61.2025 67.368C60.2745 66.44 59.7785 65.16 59.7145 63.528C59.6825 61.928 60.1625 60.632 61.1545 59.64C62.1465 58.648 63.3785 58.152 64.8505 58.152H80.8345C82.6585 58.152 84.0185 58.616 84.9145 59.544C85.8105 60.472 86.2585 61.784 86.2585 63.48C86.2585 64.696 85.9225 65.848 85.2505 66.936C84.5785 67.992 83.8265 68.92 82.9945 69.72L70.7065 81.816C70.3225 82.2 70.1465 82.616 70.1785 83.064C70.2105 83.48 70.4025 83.8 70.7545 84.024C71.1385 84.248 71.6185 84.248 72.1945 84.024C73.2505 83.576 74.2425 83.112 75.1705 82.632C76.0985 82.152 77.0105 81.752 77.9065 81.432C78.8345 81.08 79.7945 80.904 80.7865 80.904C82.9625 80.904 84.5945 81.496 85.6825 82.68C86.7705 83.832 87.3145 85.256 87.3145 86.952C87.3145 88.648 86.7705 90.072 85.6825 91.224C84.5945 92.344 82.9625 92.904 80.7865 92.904H65.3305Z" fill="white"/>
<path d="M59.887 48.936C58.607 48.936 57.6257 48.584 56.943 47.88C56.2817 47.1547 55.951 46.2267 55.951 45.096C55.951 44.4347 56.079 43.8587 56.335 43.368C56.6123 42.8773 56.943 42.44 57.327 42.056C57.711 41.672 58.0843 41.3093 58.447 40.968L66.159 33.416L65.967 32.808H59.567C58.5857 32.808 57.775 32.5093 57.135 31.912C56.5163 31.2933 56.1857 30.44 56.143 29.352C56.1217 28.2853 56.4417 27.4213 57.103 26.76C57.7643 26.0987 58.5857 25.768 59.567 25.768H70.223C71.439 25.768 72.3457 26.0773 72.943 26.696C73.5403 27.3147 73.839 28.1893 73.839 29.32C73.839 30.1307 73.615 30.8987 73.167 31.624C72.719 32.328 72.2177 32.9467 71.663 33.48L63.471 41.544C63.215 41.8 63.0977 42.0773 63.119 42.376C63.1403 42.6533 63.2683 42.8667 63.503 43.016C63.759 43.1653 64.079 43.1653 64.463 43.016C65.167 42.7173 65.8283 42.408 66.447 42.088C67.0657 41.768 67.6737 41.5013 68.271 41.288C68.8897 41.0533 69.5297 40.936 70.191 40.936C71.6417 40.936 72.7297 41.3307 73.455 42.12C74.1803 42.888 74.543 43.8373 74.543 44.968C74.543 46.0987 74.1803 47.048 73.455 47.816C72.7297 48.5627 71.6417 48.936 70.191 48.936H59.887Z" fill="white"/>
<path d="M53.2089 123.84C52.3609 123.84 51.6729 123.78 51.1449 123.66C50.6169 123.548 50.2249 123.36 49.9689 123.096C49.7209 122.832 49.5969 122.48 49.5969 122.04V121.608C49.5969 121.352 49.6729 121.148 49.8249 120.996C49.9849 120.844 50.1889 120.768 50.4369 120.768H54.9369C54.9929 120.768 55.0289 120.76 55.0449 120.744C55.0689 120.72 55.0809 120.68 55.0809 120.624V120.108C55.0809 120.004 55.0289 119.952 54.9249 119.952H50.1489C49.9569 119.952 49.8089 119.904 49.7049 119.808C49.6009 119.712 49.5489 119.576 49.5489 119.4C49.5489 119.224 49.6009 119.088 49.7049 118.992C49.8089 118.896 49.9569 118.848 50.1489 118.848H55.4889C55.7449 118.848 55.9489 118.924 56.1009 119.076C56.2529 119.228 56.3289 119.432 56.3289 119.688V121.02C56.3289 121.244 56.2609 121.424 56.1249 121.56C55.9889 121.696 55.8089 121.764 55.5849 121.764H51.0009C50.8969 121.764 50.8449 121.816 50.8449 121.92V122.1C50.8449 122.348 51.0209 122.516 51.3729 122.604C51.7409 122.692 52.3329 122.736 53.1489 122.736C53.5969 122.736 54.0569 122.712 54.5289 122.664C55.0089 122.616 55.4369 122.544 55.8129 122.448L56.0049 122.424C56.1329 122.424 56.2409 122.464 56.3289 122.544C56.4169 122.624 56.4769 122.736 56.5089 122.88C56.5329 123.04 56.5009 123.176 56.4129 123.288C56.3249 123.4 56.1889 123.48 56.0049 123.528C55.6209 123.624 55.1689 123.7 54.6489 123.756C54.1369 123.812 53.6569 123.84 53.2089 123.84ZM48.4809 118.08C48.2889 118.08 48.1409 118.032 48.0369 117.936C47.9329 117.84 47.8809 117.704 47.8809 117.528C47.8809 117.352 47.9329 117.216 48.0369 117.12C48.1409 117.024 48.2889 116.976 48.4809 116.976H52.3569V116.412C52.3569 116.252 52.4089 116.124 52.5129 116.028C52.6169 115.932 52.7649 115.884 52.9569 115.884H53.0049C53.1969 115.884 53.3449 115.932 53.4489 116.028C53.5529 116.124 53.6049 116.252 53.6049 116.412V116.976H57.4809C57.6729 116.976 57.8209 117.024 57.9249 117.12C58.0289 117.216 58.0809 117.352 58.0809 117.528C58.0809 117.704 58.0289 117.84 57.9249 117.936C57.8209 118.032 57.6729 118.08 57.4809 118.08H48.4809ZM49.9929 116.244C49.9129 116.268 49.8449 116.28 49.7889 116.28C49.6369 116.28 49.5129 116.22 49.4169 116.1C49.3289 115.996 49.2849 115.868 49.2849 115.716C49.2849 115.596 49.3129 115.496 49.3689 115.416C49.4249 115.336 49.5009 115.284 49.5969 115.26C50.3089 115.124 50.8649 114.988 51.2649 114.852C51.6649 114.716 51.9569 114.564 52.1409 114.396C52.3329 114.22 52.4329 114.008 52.4409 113.76H50.1129C49.9209 113.76 49.7729 113.712 49.6689 113.616C49.5649 113.52 49.5129 113.388 49.5129 113.22C49.5129 113.052 49.5649 112.92 49.6689 112.824C49.7729 112.728 49.9209 112.68 50.1129 112.68H55.8729C56.0649 112.68 56.2129 112.728 56.3169 112.824C56.4209 112.92 56.4729 113.052 56.4729 113.22C56.4729 113.388 56.4209 113.52 56.3169 113.616C56.2129 113.712 56.0649 113.76 55.8729 113.76H53.7009C53.7009 113.984 53.6649 114.2 53.5929 114.408C54.1129 114.512 54.6369 114.644 55.1649 114.804C55.6929 114.956 56.1169 115.112 56.4369 115.272C56.5969 115.36 56.6769 115.496 56.6769 115.68C56.6769 115.872 56.6129 116.02 56.4849 116.124C56.3809 116.212 56.2729 116.256 56.1609 116.256C56.0489 116.256 55.8649 116.2 55.6089 116.088C55.2249 115.936 54.7809 115.788 54.2769 115.644C53.7809 115.5 53.3049 115.38 52.8489 115.284C52.3209 115.636 51.4529 115.94 50.2449 116.196L49.9929 116.244ZM62.736 118.344C62.504 118.344 62.272 118.34 62.04 118.332C61.808 118.324 61.592 118.3 61.392 118.26C60.768 118.156 60.3 117.964 59.988 117.684C59.676 117.396 59.52 116.976 59.52 116.424V115.8C59.52 115.552 59.596 115.352 59.748 115.2C59.908 115.048 60.112 114.972 60.36 114.972H63.6C63.648 114.972 63.688 114.956 63.72 114.924C63.76 114.884 63.78 114.84 63.78 114.792V114.072C63.78 114.024 63.76 113.984 63.72 113.952C63.688 113.912 63.648 113.892 63.6 113.892H60.06C59.868 113.892 59.72 113.844 59.616 113.748C59.512 113.652 59.46 113.516 59.46 113.34C59.46 113.164 59.512 113.028 59.616 112.932C59.72 112.836 59.868 112.788 60.06 112.788H64.188C64.444 112.788 64.648 112.864 64.8 113.016C64.952 113.168 65.028 113.372 65.028 113.628V115.176C65.028 115.424 64.948 115.624 64.788 115.776C64.636 115.928 64.436 116.004 64.188 116.004H60.948C60.9 116.004 60.856 116.024 60.816 116.064C60.784 116.096 60.768 116.14 60.768 116.196V116.448C60.768 116.64 60.836 116.8 60.972 116.928C61.108 117.048 61.288 117.124 61.512 117.156C61.856 117.212 62.26 117.24 62.724 117.24C63.38 117.24 64.104 117.128 64.896 116.904L65.076 116.88C65.22 116.88 65.336 116.936 65.424 117.048C65.52 117.152 65.568 117.288 65.568 117.456C65.568 117.728 65.404 117.912 65.076 118.008C64.708 118.112 64.316 118.196 63.9 118.26C63.492 118.316 63.104 118.344 62.736 118.344ZM62.844 123.708C62.34 123.708 61.94 123.568 61.644 123.288C61.356 123.008 61.212 122.616 61.212 122.112V120.264C61.212 120.008 61.288 119.804 61.44 119.652C61.6 119.5 61.804 119.424 62.052 119.424H67.368C67.624 119.424 67.828 119.5 67.98 119.652C68.132 119.804 68.208 120.008 68.208 120.264V122.112C68.208 122.624 68.08 123.016 67.824 123.288C67.568 123.568 67.192 123.708 66.696 123.708H62.844ZM66.42 122.604C66.58 122.604 66.708 122.556 66.804 122.46C66.908 122.356 66.96 122.224 66.96 122.064V120.708C66.96 120.66 66.94 120.62 66.9 120.588C66.868 120.548 66.828 120.528 66.78 120.528H62.64C62.592 120.528 62.548 120.548 62.508 120.588C62.476 120.62 62.46 120.66 62.46 120.708V122.064C62.46 122.224 62.508 122.356 62.604 122.46C62.708 122.556 62.84 122.604 63 122.604H66.42ZM67.56 118.728C67.368 118.728 67.22 118.676 67.116 118.572C67.012 118.468 66.96 118.32 66.96 118.128V112.932C66.96 112.74 67.012 112.592 67.116 112.488C67.22 112.384 67.368 112.332 67.56 112.332H67.608C67.8 112.332 67.948 112.384 68.052 112.488C68.156 112.592 68.208 112.74 68.208 112.932V118.128C68.208 118.32 68.156 118.468 68.052 118.572C67.948 118.676 67.8 118.728 67.608 118.728H67.56Z" fill="black"/>
</svg>
