<svg width="67" height="67" viewBox="0 0 67 67" fill="none" xmlns="http://www.w3.org/2000/svg">
<path d="M63.3503 0.2325L56.2242 10.4391C55.784 11.077 56.0316 12.2538 56.6231 12.3418L62.1878 13.1997L58.8518 20.6347C58.7005 20.9756 58.7211 21.4485 58.9068 21.7455C59.1132 22.0755 59.4365 22.0865 59.6497 21.7675L66.7758 11.5609C67.216 10.923 66.9684 9.74618 66.3769 9.65819L60.8122 8.80031L64.1482 1.36534C64.2995 1.02439 64.2789 0.551455 64.0932 0.254497C63.8868 -0.0754572 63.5635 -0.0864557 63.3503 0.2325Z" fill="black"/>
<g clip-path="url(#clip0_356_2364)">
<path d="M54.375 37C54.375 30.5353 51.8069 24.3355 47.2357 19.7643C42.6645 15.1931 36.4647 12.625 30 12.625C23.5353 12.625 17.3355 15.1931 12.7643 19.7643C8.19307 24.3355 5.625 30.5353 5.625 37C5.625 43.4647 8.19307 49.6645 12.7643 54.2357C17.3355 58.8069 23.5353 61.375 30 61.375C36.4647 61.375 42.6645 58.8069 47.2357 54.2357C51.8069 49.6645 54.375 43.4647 54.375 37ZM0 37C0 29.0435 3.16071 21.4129 8.7868 15.7868C14.4129 10.1607 22.0435 7 30 7C37.9565 7 45.5871 10.1607 51.2132 15.7868C56.8393 21.4129 60 29.0435 60 37C60 44.9565 56.8393 52.5871 51.2132 58.2132C45.5871 63.8393 37.9565 67 30 67C22.0435 67 14.4129 63.8393 8.7868 58.2132C3.16071 52.5871 0 44.9565 0 37ZM20.6836 44.5352C22.9805 42.4023 26.2266 40.75 30 40.75C33.7734 40.75 37.0195 42.4023 39.3164 44.5352C41.543 46.6211 43.125 49.4219 43.125 52C43.125 52.6328 42.8086 53.2188 42.2812 53.5703C41.7539 53.9219 41.0859 53.9688 40.5 53.7227L38.4844 52.8438C35.8125 51.6719 32.918 51.0742 30 51.0742C27.082 51.0742 24.1875 51.6836 21.5156 52.8438L19.5 53.7227C18.9258 53.9805 18.2461 53.9219 17.7188 53.5703C17.1914 53.2188 16.875 52.6328 16.875 52C16.875 49.4219 18.457 46.6211 20.6836 44.5352ZM15.6445 24.1914L26.1797 29.8047C27.4336 30.4727 27.4336 32.2773 26.1797 32.9453L15.6445 38.5586C14.7188 39.0508 13.5938 38.3828 13.5938 37.3281C13.5938 37 13.7109 36.6836 13.9219 36.4375L18.1406 31.375L13.9219 26.3125C13.7109 26.0664 13.5938 25.75 13.5938 25.4219C13.5938 24.3672 14.7188 23.6992 15.6445 24.1914ZM46.4062 25.4102C46.4062 25.7383 46.2891 26.0547 46.0781 26.3008L41.8594 31.3633L46.0781 36.4258C46.2891 36.6719 46.4062 36.9883 46.4062 37.3164C46.4062 38.3711 45.2812 39.0391 44.3555 38.5469L33.8203 32.9336C32.5664 32.2656 32.5664 30.4609 33.8203 29.793L44.3555 24.1797C45.2812 23.6875 46.4062 24.3555 46.4062 25.4102Z" fill="black"/>
</g>
<defs>
<clipPath id="clip0_356_2364">
<rect width="60" height="60" fill="black" transform="translate(0 7)"/>
</clipPath>
</defs>
</svg>
