<svg width="117" height="134" viewBox="0 0 117 134" fill="none" xmlns="http://www.w3.org/2000/svg">
<path d="M12.5942 101.96C10.4342 101.96 8.52755 101.44 6.87422 100.4C5.22089 99.36 3.94089 97.9067 3.03422 96.04C2.12755 94.1733 1.67422 92.0133 1.67422 89.56C1.67422 87.1067 2.12755 84.9467 3.03422 83.08C3.94089 81.2133 5.22089 79.7733 6.87422 78.76C8.52755 77.72 10.4342 77.2 12.5942 77.2C14.7276 77.2 16.6209 77.72 18.2742 78.76C19.9276 79.7733 21.2076 81.2267 22.1142 83.12C23.0209 84.9867 23.4742 87.1333 23.4742 89.56C23.4742 91.9867 23.0209 94.1467 22.1142 96.04C21.2076 97.9067 19.9276 99.36 18.2742 100.4C16.6209 101.44 14.7276 101.96 12.5942 101.96ZM12.5942 95.96C13.9276 95.96 14.9942 95.3733 15.7942 94.2C16.5942 93.0267 16.9942 91.48 16.9942 89.56C16.9942 87.6667 16.5809 86.1333 15.7542 84.96C14.9542 83.7867 13.9009 83.2 12.5942 83.2C11.2609 83.2 10.1809 83.7867 9.35422 84.96C8.55422 86.1333 8.15422 87.6667 8.15422 89.56C8.15422 91.48 8.55422 93.0267 9.35422 94.2C10.1809 95.3733 11.2609 95.96 12.5942 95.96ZM29.2742 112.88C28.2876 112.88 27.5009 112.613 26.9142 112.08C26.3542 111.573 26.0742 110.84 26.0742 109.88V77.04C26.0742 76.08 26.3542 75.3467 26.9142 74.84C27.5009 74.3067 28.2876 74.04 29.2742 74.04H29.4742C30.4609 74.04 31.2342 74.3067 31.7942 74.84C32.3809 75.3467 32.6742 76.08 32.6742 77.04V86.52H34.7142C35.6742 86.52 36.4076 86.7867 36.9142 87.32C37.4476 87.8533 37.7142 88.5867 37.7142 89.52C37.7142 90.4533 37.4476 91.1867 36.9142 91.72C36.4076 92.2533 35.6742 92.52 34.7142 92.52H32.6742V109.88C32.6742 110.84 32.3809 111.573 31.7942 112.08C31.2342 112.613 30.4609 112.88 29.4742 112.88H29.2742ZM52.8114 101.96C50.6514 101.96 48.7181 101.44 47.0114 100.4C45.3314 99.3333 44.0247 97.8667 43.0914 96C42.1581 94.1067 41.6914 91.96 41.6914 89.56C41.6914 87.16 42.1581 85.0267 43.0914 83.16C44.0247 81.2667 45.3314 79.8 47.0114 78.76C48.7181 77.72 50.6514 77.2 52.8114 77.2C54.9714 77.2 56.8914 77.72 58.5714 78.76C60.2514 79.8 61.5581 81.2667 62.4914 83.16C63.4247 85.0267 63.8914 87.16 63.8914 89.56C63.8914 91.9867 63.4247 94.1333 62.4914 96C61.5581 97.8667 60.2514 99.3333 58.5714 100.4C56.8914 101.44 54.9714 101.96 52.8114 101.96ZM52.8114 95.96C54.1714 95.96 55.2781 95.3733 56.1314 94.2C56.9847 93 57.4114 91.4533 57.4114 89.56C57.4114 87.6667 56.9847 86.1333 56.1314 84.96C55.2781 83.7867 54.1714 83.2 52.8114 83.2C51.4247 83.2 50.3047 83.7867 49.4514 84.96C48.5981 86.1333 48.1714 87.6667 48.1714 89.56C48.1714 91.4533 48.5981 93 49.4514 94.2C50.3047 95.3733 51.4247 95.96 52.8114 95.96ZM70.0914 112.88C69.1047 112.88 68.3181 112.613 67.7314 112.08C67.1714 111.573 66.8914 110.84 66.8914 109.88V77.04C66.8914 76.08 67.1714 75.3467 67.7314 74.84C68.3181 74.3067 69.1047 74.04 70.0914 74.04H70.2914C71.2781 74.04 72.0514 74.3067 72.6114 74.84C73.1981 75.3467 73.4914 76.08 73.4914 77.04V109.88C73.4914 110.84 73.1981 111.573 72.6114 112.08C72.0514 112.613 71.2781 112.88 70.2914 112.88H70.0914Z" fill="#7BB7F7"/>
<path d="M105.469 91.12C104.615 90.9333 104.002 90.5733 103.629 90.04C103.255 89.5067 103.122 88.8933 103.229 88.2L103.389 87.16C102.509 87.1867 98.5886 87.2667 91.6286 87.4L88.3486 87.44C87.4686 87.4667 86.8153 87.24 86.3886 86.76C85.9619 86.28 85.7486 85.64 85.7486 84.84C85.7486 84.0933 85.9619 83.4933 86.3886 83.04C86.8153 82.5867 87.4686 82.36 88.3486 82.36L103.829 82.44V81.24C103.829 81.0267 103.762 80.8667 103.629 80.76C103.522 80.6267 103.389 80.56 103.229 80.56H88.7486C87.8153 80.56 87.0819 80.32 86.5486 79.84C86.0153 79.3333 85.7486 78.6933 85.7486 77.92C85.7486 77.1467 86.0153 76.52 86.5486 76.04C87.0819 75.5333 87.8153 75.28 88.7486 75.28H106.229C107.722 75.28 108.789 75.5733 109.429 76.16C110.095 76.7467 110.429 77.7867 110.429 79.28C110.429 80.64 110.349 82.1867 110.189 83.92C110.029 85.6267 109.789 87.2267 109.469 88.72C109.095 90.4267 108.162 91.28 106.669 91.28C106.455 91.28 106.055 91.2267 105.469 91.12ZM98.3086 112.44C94.3619 112.44 91.3353 111.653 89.2286 110.08C87.1486 108.507 86.1086 106.107 86.1086 102.88V101.88C86.1086 100.973 86.3886 100.253 86.9486 99.72C87.5353 99.16 88.3219 98.88 89.3086 98.88H89.5086C90.4953 98.88 91.2686 99.16 91.8286 99.72C92.4153 100.253 92.7086 100.973 92.7086 101.88V102.88C92.7086 104.133 93.2153 105.04 94.2286 105.6C95.2686 106.16 96.7753 106.44 98.7486 106.44C101.655 106.44 104.429 105.973 107.069 105.04C107.522 104.907 107.909 104.84 108.229 104.84C108.842 104.84 109.389 105.013 109.869 105.36C110.349 105.68 110.695 106.133 110.909 106.72C111.069 107.147 111.149 107.573 111.149 108C111.149 108.613 110.975 109.173 110.629 109.68C110.282 110.16 109.802 110.52 109.189 110.76C106.389 111.88 102.762 112.44 98.3086 112.44ZM83.7086 98.12C82.5886 98.12 81.7353 97.8667 81.1486 97.36C80.5886 96.8533 80.3086 96.16 80.3086 95.28C80.3086 94.4 80.5886 93.7067 81.1486 93.2C81.7353 92.6933 82.5886 92.44 83.7086 92.44H92.9086V90.52C92.9086 89.7467 93.1886 89.12 93.7486 88.64C94.3353 88.16 95.1219 87.92 96.1086 87.92H96.3086C97.2953 87.92 98.0686 88.16 98.6286 88.64C99.2153 89.12 99.5086 89.7467 99.5086 90.52V92.44H112.509C113.629 92.44 114.469 92.6933 115.029 93.2C115.615 93.7067 115.909 94.4 115.909 95.28C115.909 96.16 115.615 96.8533 115.029 97.36C114.469 97.8667 113.629 98.12 112.509 98.12H83.7086Z" fill="#7C8B9D"/>
<path d="M25.4202 131.028C24.6082 131.028 24.1696 130.897 24.1042 130.636L23.6422 128.83H21.4162L21.0102 130.566C20.9542 130.855 20.5062 131 19.6662 131C19.2182 131 18.8869 130.977 18.6722 130.93C18.4576 130.874 18.3502 130.832 18.3502 130.804L20.8282 121.326C20.8282 121.251 21.4676 121.214 22.7462 121.214C24.0249 121.214 24.6642 121.251 24.6642 121.326L27.0862 130.818C27.0862 130.883 26.8716 130.935 26.4422 130.972C26.0129 131.009 25.6722 131.028 25.4202 131.028ZM21.7662 127.052H23.2362L22.6062 124.154H22.5222L21.7662 127.052ZM29.6381 128.592V123.608H28.6441C28.4854 123.608 28.3734 123.407 28.3081 123.006C28.2801 122.81 28.2661 122.609 28.2661 122.404C28.2661 122.199 28.2801 121.998 28.3081 121.802C28.3734 121.401 28.4854 121.2 28.6441 121.2H33.3481C33.5067 121.2 33.6141 121.401 33.6701 121.802C33.7074 121.998 33.7261 122.199 33.7261 122.404C33.7261 122.609 33.7074 122.81 33.6701 123.006C33.6141 123.407 33.5067 123.608 33.3481 123.608H32.4101V128.592H33.3901C33.5487 128.592 33.6607 128.793 33.7261 129.194C33.7634 129.39 33.7821 129.591 33.7821 129.796C33.7821 130.001 33.7634 130.202 33.7261 130.398C33.6607 130.799 33.5487 131 33.3901 131H28.6721C28.5134 131 28.4061 130.799 28.3501 130.398C28.3127 130.202 28.2941 130.001 28.2941 129.796C28.2941 129.591 28.3127 129.39 28.3501 129.194C28.4061 128.793 28.5134 128.592 28.6721 128.592H29.6381ZM44.4947 128.34H38.9647C38.7967 128.34 38.6754 128.205 38.6007 127.934C38.5634 127.794 38.5447 127.659 38.5447 127.528C38.5447 127.397 38.5634 127.262 38.6007 127.122C38.6754 126.851 38.7967 126.716 38.9647 126.716H44.4947C44.6627 126.716 44.784 126.851 44.8587 127.122C44.896 127.262 44.9147 127.397 44.9147 127.528C44.9147 127.659 44.896 127.794 44.8587 127.934C44.784 128.205 44.6627 128.34 44.4947 128.34ZM54.1528 121.074C54.8342 121.074 55.4315 121.172 55.9448 121.368C56.4675 121.555 56.7288 121.811 56.7288 122.138C56.7288 122.465 56.6028 122.871 56.3508 123.356C56.1082 123.832 55.9028 124.07 55.7348 124.07C55.6882 124.07 55.6322 124.047 55.5668 124C55.5108 123.944 55.3708 123.888 55.1468 123.832C54.9322 123.767 54.7455 123.734 54.5868 123.734C54.0455 123.734 53.6068 123.925 53.2708 124.308C52.9442 124.691 52.7808 125.279 52.7808 126.072C52.7808 126.856 52.9488 127.439 53.2848 127.822C53.6302 128.205 54.0642 128.396 54.5868 128.396C54.8015 128.396 55.0395 128.368 55.3008 128.312C55.5715 128.247 55.7628 128.158 55.8748 128.046C55.8935 128.027 55.9308 128.018 55.9868 128.018C56.0428 128.018 56.1455 128.125 56.2948 128.34C56.4535 128.545 56.5982 128.821 56.7288 129.166C56.8595 129.502 56.9248 129.763 56.9248 129.95C56.9248 130.314 56.6448 130.603 56.0848 130.818C55.5248 131.033 54.8622 131.14 54.0968 131.14C52.8648 131.14 51.8522 130.706 51.0588 129.838C50.2655 128.97 49.8688 127.747 49.8688 126.17C49.8688 124.583 50.2748 123.337 51.0868 122.432C51.9082 121.527 52.9302 121.074 54.1528 121.074ZM59.2285 130.174C58.6498 129.53 58.3605 128.639 58.3605 127.5C58.3605 126.361 58.6498 125.47 59.2285 124.826C59.8165 124.182 60.6052 123.86 61.5945 123.86C62.5838 123.86 63.3678 124.182 63.9465 124.826C64.5252 125.47 64.8145 126.361 64.8145 127.5C64.8145 128.639 64.5252 129.53 63.9465 130.174C63.3678 130.818 62.5838 131.14 61.5945 131.14C60.6052 131.14 59.8165 130.818 59.2285 130.174ZM61.5945 126.198C61.0718 126.198 60.8105 126.627 60.8105 127.486C60.8105 128.345 61.0718 128.774 61.5945 128.774C62.1265 128.774 62.3925 128.345 62.3925 127.486C62.3925 126.627 62.1265 126.198 61.5945 126.198ZM69.4302 130.916C69.4302 130.981 69.0942 131.014 68.4222 131.014C67.4889 130.986 67.0222 130.935 67.0222 130.86V126.324H66.6582C66.4156 126.324 66.2569 126.119 66.1822 125.708C66.1636 125.587 66.1542 125.465 66.1542 125.344C66.1542 125.055 66.2102 124.765 66.3222 124.476C66.4902 124.065 66.7516 123.86 67.1062 123.86C67.4609 123.86 67.7782 123.944 68.0582 124.112C68.3382 124.28 68.5249 124.448 68.6182 124.616C69.2062 124.112 69.9062 123.86 70.7182 123.86C71.5302 123.86 72.1182 124.079 72.4822 124.518C72.8462 124.957 73.0282 125.675 73.0282 126.674V130.874C73.0282 130.986 72.6269 131.042 71.8242 131.042C71.0309 131.042 70.6342 130.986 70.6342 130.874V126.828C70.6342 126.361 70.4709 126.128 70.1442 126.128C70.0509 126.128 69.9202 126.17 69.7522 126.254C69.5842 126.329 69.4769 126.385 69.4302 126.422V130.916ZM78.1352 130.916C78.1352 131.028 77.7432 131.084 76.9592 131.084C76.0258 131.047 75.5592 130.986 75.5592 130.902V125.946H74.8452C74.6585 125.946 74.5652 125.624 74.5652 124.98C74.5652 124.812 74.5792 124.607 74.6072 124.364C74.6445 124.121 74.7145 124 74.8172 124H75.5592V122.768C75.5592 122.581 75.9512 122.488 76.7352 122.488C77.5285 122.488 77.9252 122.563 77.9252 122.712V123.608L77.9392 124H79.1292C79.2878 124 79.3672 124.327 79.3672 124.98C79.3672 125.633 79.2878 125.96 79.1292 125.96H78.1352V130.916ZM81.6515 125.918C81.3901 125.451 81.2595 125.073 81.2595 124.784C81.2595 124.485 81.3388 124.294 81.4975 124.21C82.0295 123.977 82.7575 123.86 83.6815 123.86C84.6148 123.86 85.2728 124.079 85.6555 124.518C86.0381 124.947 86.2295 125.587 86.2295 126.436V128.648H86.7055C86.8641 128.648 86.9855 128.741 87.0695 128.928C87.1628 129.115 87.2095 129.371 87.2095 129.698C87.2095 130.025 87.1255 130.347 86.9575 130.664C86.7988 130.981 86.5795 131.14 86.2995 131.14C85.7955 131.14 85.3895 131.005 85.0815 130.734C84.9415 130.622 84.8341 130.487 84.7595 130.328C84.3301 130.869 83.6628 131.14 82.7575 131.14C82.0761 131.14 81.5021 130.897 81.0355 130.412C80.5688 129.927 80.3355 129.353 80.3355 128.69C80.3355 127.169 81.2455 126.408 83.0655 126.408H83.8355V126.268C83.8355 126.025 83.7935 125.871 83.7095 125.806C83.6348 125.731 83.4528 125.694 83.1635 125.694C82.8088 125.694 82.3048 125.769 81.6515 125.918ZM82.7715 128.494C82.7715 128.699 82.8275 128.858 82.9395 128.97C83.0515 129.073 83.1915 129.124 83.3595 129.124C83.5368 129.124 83.6955 129.054 83.8355 128.914V127.836H83.4435C82.9955 127.836 82.7715 128.055 82.7715 128.494ZM90.9979 127.528C90.9979 128.443 91.3432 128.9 92.0339 128.9C92.4819 128.9 92.8552 128.811 93.1539 128.634C93.2939 128.634 93.4059 128.877 93.4899 129.362C93.5832 129.838 93.6299 130.165 93.6299 130.342C93.6299 130.51 93.6065 130.622 93.5599 130.678C93.0652 130.986 92.3885 131.14 91.5299 131.14C90.6712 131.14 89.9385 130.823 89.3319 130.188C88.7345 129.544 88.4359 128.671 88.4359 127.57C88.4359 126.459 88.7299 125.563 89.3179 124.882C89.9152 124.201 90.7039 123.86 91.6839 123.86C92.6732 123.86 93.3592 124.098 93.7419 124.574C93.8259 124.677 93.8679 124.831 93.8679 125.036C93.8679 125.232 93.8305 125.475 93.7559 125.764C93.5879 126.361 93.3685 126.707 93.0979 126.8C93.0605 126.809 93.0045 126.814 92.9299 126.814C92.8645 126.814 92.7805 126.758 92.6779 126.646C92.3139 126.282 92.0199 126.1 91.7959 126.1C91.5812 126.1 91.3945 126.212 91.2359 126.436C91.0772 126.66 90.9979 127.024 90.9979 127.528ZM98.5555 130.916C98.5555 131.028 98.1635 131.084 97.3795 131.084C96.4461 131.047 95.9795 130.986 95.9795 130.902V125.946H95.2655C95.0788 125.946 94.9855 125.624 94.9855 124.98C94.9855 124.812 94.9995 124.607 95.0275 124.364C95.0648 124.121 95.1348 124 95.2375 124H95.9795V122.768C95.9795 122.581 96.3715 122.488 97.1555 122.488C97.9488 122.488 98.3455 122.563 98.3455 122.712V123.608L98.3595 124H99.5495C99.7081 124 99.7875 124.327 99.7875 124.98C99.7875 125.633 99.7081 125.96 99.5495 125.96H98.5555V130.916Z" fill="#7C8B9D"/>
<path d="M31.164 36C31.164 38.054 31.3865 39.9894 31.6255 41.6926C31.7001 42.2246 31.7744 42.7226 31.8443 43.1917C32.0058 44.2748 32.1442 45.2035 32.2114 46.0397C32.3119 47.2897 32.1936 47.8334 32.077 48.0402C32.0514 48.0857 32.034 48.1051 31.9736 48.1337C31.8835 48.1763 31.657 48.25 31.1907 48.25C29.4326 48.25 27.6151 47.1635 26.1548 44.9391C24.7043 42.7295 23.75 39.5741 23.75 36C23.75 32.4259 24.7043 29.2705 26.1548 27.0609C27.6151 24.8365 29.4326 23.75 31.1907 23.75C31.657 23.75 31.8835 23.8237 31.9736 23.8663C32.034 23.8949 32.0514 23.9143 32.077 23.9598C32.1936 24.1666 32.3119 24.7103 32.2114 25.9603C32.1442 26.7965 32.0058 27.7252 31.8443 28.8083C31.7744 29.2774 31.7001 29.7754 31.6255 30.3074C31.3865 32.0106 31.164 33.946 31.164 36Z" fill="white" stroke="url(#paint0_linear_356_7241)" stroke-width="3.5"/>
<path d="M86.836 35C86.836 37.054 86.6135 38.9894 86.3745 40.6926C86.2999 41.2246 86.2256 41.7226 86.1557 42.1917C85.9942 43.2748 85.8558 44.2035 85.7886 45.0397C85.6881 46.2897 85.8064 46.8334 85.923 47.0402C85.9486 47.0857 85.966 47.1051 86.0264 47.1337C86.1165 47.1763 86.343 47.25 86.8093 47.25C88.5674 47.25 90.3849 46.1635 91.8452 43.9391C93.2957 41.7295 94.25 38.5741 94.25 35C94.25 31.4259 93.2957 28.2705 91.8452 26.0609C90.3849 23.8365 88.5674 22.75 86.8093 22.75C86.343 22.75 86.1165 22.8237 86.0264 22.8663C85.966 22.8949 85.9486 22.9143 85.923 22.9598C85.8064 23.1666 85.6881 23.7103 85.7886 24.9603C85.8558 25.7965 85.9942 26.7252 86.1557 27.8083C86.2256 28.2774 86.2999 28.7754 86.3745 29.3074C86.6135 31.0106 86.836 32.946 86.836 35Z" fill="white" stroke="url(#paint1_linear_356_7241)" stroke-width="3.5"/>
<circle cx="59" cy="35" r="21" fill="white" stroke="url(#paint2_linear_356_7241)" stroke-width="8"/>
<path d="M60.9127 18.4432C60.5441 20.5138 52.9901 22.6519 60.9128 24.1379C68.8355 25.6239 55.4194 27.749 55.4194 27.749" stroke="#1499D7" stroke-width="2" stroke-linecap="round"/>
<path d="M67.4022 35C67.3903 35.0952 67.3686 35.0684 67.2988 35.1033" stroke="#4691DB" stroke-width="5" stroke-linecap="round"/>
<path d="M51.1033 35.2061C51.0914 35.3013 51.0698 35.2745 51 35.3094" stroke="#4691DB" stroke-width="5" stroke-linecap="round"/>
<path d="M54.8672 41.8887C58.1394 44.5001 60.1273 44.61 63.8672 41.8887" stroke="#4691DB" stroke-width="3" stroke-linecap="round"/>
<path d="M32 21.9999C40 -6 78 -5.99985 86 21.9992" stroke="#129CD4" stroke-width="2" stroke-linecap="round"/>
<defs>
<linearGradient id="paint0_linear_356_7241" x1="34.0786" y1="25.0665" x2="16.9184" y2="36.8012" gradientUnits="userSpaceOnUse">
<stop stop-color="#0FA3D3"/>
<stop offset="0.849087" stop-color="#1C8AD9"/>
</linearGradient>
<linearGradient id="paint1_linear_356_7241" x1="83.9214" y1="24.0665" x2="101.082" y2="35.8012" gradientUnits="userSpaceOnUse">
<stop stop-color="#0FA3D3"/>
<stop offset="0.849087" stop-color="#1C8AD9"/>
</linearGradient>
<linearGradient id="paint2_linear_356_7241" x1="76" y1="16.5" x2="37.5" y2="45.5" gradientUnits="userSpaceOnUse">
<stop stop-color="#0EA4D3"/>
<stop offset="1" stop-color="#1B8ADB"/>
</linearGradient>
</defs>
</svg>
