<svg width="19" height="19" viewBox="0 0 19 19" fill="none" xmlns="http://www.w3.org/2000/svg">
<path d="M4.2251 15.1928H8.29072L10.979 17.878C11.1235 18.0233 11.2952 18.1386 11.4844 18.2172C11.6736 18.2959 11.8764 18.3364 12.0813 18.3364C12.2161 18.3362 12.3504 18.319 12.4809 18.2852C12.7446 18.2186 12.9861 18.0837 13.1811 17.8941C13.3761 17.7045 13.5177 17.4668 13.5916 17.205L18.3333 1.07925L4.2251 15.1928Z" fill="white"/>
<path d="M3.12966 14.1235L17.2509 0L1.13657 4.75239C0.874189 4.82701 0.635876 4.96893 0.445275 5.16408C0.254674 5.35923 0.118408 5.60082 0.0499979 5.86489C-0.0184127 6.12896 -0.0165908 6.40632 0.0552826 6.66947C0.127156 6.93261 0.266583 7.17239 0.459731 7.36502L3.12966 10.0327V14.1235Z" fill="white"/>
</svg>
