<svg width="71" height="71" viewBox="0 0 71 71" fill="none" xmlns="http://www.w3.org/2000/svg">
<g clip-path="url(#clip0_761_55835)">
<path d="M19.0544 34.1867C19.4141 29.9241 21.3743 25.8156 24.8962 22.8499C31.9398 16.9186 42.4458 17.8482 48.393 24.9107C54.3402 31.9732 53.468 42.4842 46.4244 48.4155C40.4803 53.4208 32.0932 53.5197 26.0329 49.2015L29.3475 46.4103C33.7893 49.0329 39.5741 48.7222 43.7333 45.2198C49.0081 40.778 49.6754 32.87 45.2218 27.5811C40.7681 22.2923 32.862 21.6038 27.5872 26.0456C24.9418 28.2732 23.5117 31.3618 23.2573 34.5527L32.7212 35.3768L21.5661 44.7702L12.1475 33.5853L19.0544 34.1867Z" fill="white"/>
</g>
<defs>
<clipPath id="clip0_761_55835">
<rect width="50" height="50.1337" fill="white" transform="matrix(-0.764921 0.644124 0.644124 0.764921 38.6289 0.362305)"/>
</clipPath>
</defs>
</svg>
