<svg width="50" height="50" viewBox="0 0 35 35" fill="none" xmlns="http://www.w3.org/2000/svg">
<g clip-path="url(#clip0_674_3723)">
<path d="M9.14404 17.2655C9.10871 15.2137 9.84469 13.1545 11.3814 11.5616C14.4547 8.37585 19.5135 8.28831 22.6945 11.3571C25.8756 14.4259 25.9698 19.4846 22.8964 22.6703C20.3029 25.3588 16.3052 25.8299 13.2034 24.076L14.6497 22.5769C16.8967 23.6035 19.6422 23.1629 21.457 21.2817C23.7586 18.896 23.693 15.0895 21.3108 12.7914C18.9287 10.4933 15.1223 10.5645 12.8207 12.9502C11.6665 14.1467 11.134 15.6925 11.1675 17.2277L15.7239 17.1424L10.8566 22.1878L5.81875 17.3277L9.14404 17.2655Z" fill="black"/>
</g>
<defs>
<clipPath id="clip0_674_3723">
<rect width="24.0357" height="24" fill="white" transform="matrix(-0.694294 0.719691 0.719691 0.694294 16.8433 0.138672)"/>
</clipPath>
</defs>
</svg>
