<svg width="71" height="71" viewBox="0 0 71 71" fill="none" xmlns="http://www.w3.org/2000/svg">
<circle cx="35.5" cy="35.5" r="31.5" stroke="white" stroke-width="8"/>
<path d="M36.7102 9.23484C36.1867 12.1752 25.4601 15.2112 36.7103 17.3213C47.9605 19.4314 28.9096 22.4491 28.9096 22.4491" stroke="white" stroke-width="3.5" stroke-linecap="round"/>
<path d="M50.5 35.0005C47 39.0005 43.5991 34.9509 43.5 35.0005M26 35.0005C22.5 39.0005 19.0991 34.9509 19 35.0005" stroke="white" stroke-width="5.5" stroke-linecap="round"/>
<path d="M39 48C39 51.0618 36.931 53 35 53C33.069 53 31 51.0618 31 48C31 44.9382 33.069 43 35 43C36.931 43 39 44.9382 39 48Z" stroke="white" stroke-width="4"/>
</svg>
