<svg width="68" height="68" viewBox="0 0 68 68" fill="none" xmlns="http://www.w3.org/2000/svg">
<path d="M34 0C15.2223 0 0 15.2223 0 34C0 52.7777 15.2223 68 34 68C52.7777 68 68 52.7777 68 34C67.9797 15.2307 52.7693 0.0203203 34 0ZM34 59.5C19.9167 59.5 8.5 48.0833 8.5 34C8.5 19.9167 19.9167 8.5 34 8.5C48.0833 8.5 59.5 19.9167 59.5 34C59.4843 48.0768 48.0768 59.4843 34 59.5Z" fill="white"/>
<path d="M34 42.7578C36.3472 42.7578 38.25 40.855 38.25 38.5078V18.6745C38.25 16.3273 36.3472 14.4245 34 14.4245C31.6528 14.4245 29.75 16.3273 29.75 18.6745V38.5078C29.75 40.855 31.6528 42.7578 34 42.7578Z" fill="white"/>
<path d="M34.0142 53.8333C36.3614 53.8333 38.2642 51.9305 38.2642 49.5833C38.2642 47.2361 36.3614 45.3333 34.0142 45.3333C31.667 45.3333 29.7642 47.2361 29.7642 49.5833C29.7642 51.9305 31.667 53.8333 34.0142 53.8333Z" fill="white"/>
</svg>
