<svg width="52" height="45" viewBox="0 0 52 45" fill="none" xmlns="http://www.w3.org/2000/svg">
<path d="M43.8728 10.2594C42.7332 9.96477 41.5328 10.6603 41.2338 11.8194C40.9348 12.9764 41.6347 14.1594 42.7938 14.4584C45.6625 15.1973 47.6667 17.7843 47.6667 20.7526V25.0859H21.6667V20.7526C21.6667 17.1689 24.583 14.2526 28.1667 14.2526C29.3648 14.2526 30.3333 13.2841 30.3333 12.0859C30.3333 10.8878 29.3648 9.91927 28.1667 9.91927C24.0067 9.91927 20.3862 12.2788 18.5727 15.7281C17.316 14.8008 15.7625 14.2526 14.0833 14.2526C9.90167 14.2526 6.5 17.6543 6.5 21.8359C6.5 22.9973 6.76433 24.1001 7.23233 25.0859H4.33333V3.41927C4.33333 2.2211 3.36483 1.2526 2.16667 1.2526C0.9685 1.2526 0 2.2211 0 3.41927V42.4193C0 43.6174 0.9685 44.5859 2.16667 44.5859C3.36483 44.5859 4.33333 43.6174 4.33333 42.4193V38.0859H47.6667V42.4193C47.6667 43.6174 48.6352 44.5859 49.8333 44.5859C51.0315 44.5859 52 43.6174 52 42.4193V20.7526C52 15.8083 48.659 11.4944 43.8728 10.2594ZM10.8333 21.8359C10.8333 20.0441 12.2915 18.5859 14.0833 18.5859C15.8752 18.5859 17.3333 20.0441 17.3333 21.8359C17.3333 23.6278 15.8752 25.0859 14.0833 25.0859C12.2915 25.0859 10.8333 23.6278 10.8333 21.8359ZM4.33333 33.7526V29.4193H47.6667V33.7526H4.33333Z" fill="black"/>
<path d="M34.2601 1.48958L34.5651 10.4271C34.5651 11.2464 35.3268 11.9167 36.2578 11.9167C37.1888 11.9167 37.9505 11.2464 37.9505 10.4271L38.2555 1.48958C38.2555 0.670313 37.1888 0 36.2578 0C35.3268 0 34.2601 0.670313 34.2601 1.48958Z" fill="black"/>
<path d="M33.9219 15.6406C33.9219 14.4043 34.8529 13.4062 36.2578 13.4062C37.6628 13.4062 38.5938 14.4043 38.5938 15.6406C38.5938 16.877 37.6628 17.875 36.2578 17.875C34.8529 17.875 33.9219 16.877 33.9219 15.6406Z" fill="black"/>
</svg>
