<svg width="22" height="22" viewBox="0 0 22 22" fill="none" xmlns="http://www.w3.org/2000/svg">
<g clip-path="url(#clip0_965_4861)">
<path d="M21.7314 20.4352L16.3038 15.0077C16.4212 14.5997 16.5 14.1817 16.5 13.75V8.24999C16.5 5.72274 14.4439 3.66665 11.9167 3.66665H4.96283L1.56567 0.268568C1.20725 -0.0898483 0.627 -0.0898483 0.268583 0.268568C-0.0898333 0.626985 -0.0889166 1.20632 0.268583 1.56474L3.93525 5.2314L20.4353 21.7314C20.614 21.9102 20.8487 22 21.0833 22C21.318 22 21.5527 21.9102 21.7314 21.7314C22.0898 21.373 22.0898 20.7937 21.7314 20.4352ZM13.9498 17.8383C13.3348 18.1454 12.6509 18.3333 11.9167 18.3333H4.58333C2.05242 18.3333 0 16.2809 0 13.75V8.24999C0 7.03815 0.476667 5.94549 1.23842 5.1269L13.9489 17.8383H13.9498ZM22 7.62024V14.3293C22 15.0232 21.615 15.6466 20.9944 15.9564C20.735 16.0857 20.4563 16.1498 20.1795 16.1498C19.7936 16.1498 19.4123 16.0261 19.0896 15.7841C19.0557 15.7584 18.3333 15.0416 18.3333 15.0416V6.91532C18.3333 6.91532 19.0538 6.19207 19.0896 6.16549C19.6433 5.74932 20.372 5.6824 20.9944 5.99315C21.6168 6.3039 22 6.92632 22 7.62024Z" fill="white"/>
</g>
<defs>
<clipPath id="clip0_965_4861">
<rect width="22" height="22" fill="white"/>
</clipPath>
</defs>
</svg>
