<svg width="65" height="63" viewBox="0 0 65 63" fill="none" xmlns="http://www.w3.org/2000/svg">
<path d="M50.1042 0H14.8958C6.68417 0 0 6.56993 0 14.6413V38.5997C0 46.671 6.68417 53.2409 14.8958 53.2409H18.2542L28.0015 61.3069C29.2988 62.441 30.9265 63 32.5379 63C34.1142 63 35.6742 62.4623 36.8875 61.4001L46.93 53.2409H50.1042C58.3158 53.2409 65 46.671 65 38.5997V14.6413C65 6.56993 58.3158 0 50.1042 0ZM56.875 38.5997C56.875 42.2706 53.839 45.2548 50.1042 45.2548H45.4675C44.5223 45.2548 43.6069 45.5796 42.8783 46.1705L32.5108 54.6012L22.3546 46.1945C21.6233 45.5876 20.6971 45.2548 19.7383 45.2548H14.8958C11.161 45.2548 8.125 42.2706 8.125 38.5997V14.6413C8.125 10.9703 11.161 7.98614 14.8958 7.98614H50.1042C53.839 7.98614 56.875 10.9703 56.875 14.6413V38.5997ZM36.5625 41.2617C36.5625 43.4659 34.7425 45.2548 32.5 45.2548C30.2575 45.2548 28.4375 43.4659 28.4375 41.2617C28.4375 39.0575 30.2575 37.2687 32.5 37.2687C34.7425 37.2687 36.5625 39.0575 36.5625 41.2617ZM42.9731 18.5305C44.2921 23.5724 41.8004 28.798 37.0473 30.9623C36.7385 31.1034 36.4867 31.4095 36.4352 31.6091C35.9613 33.4113 34.3119 34.6066 32.5027 34.6066C32.1669 34.6066 31.8283 34.5667 31.4871 34.4815C29.315 33.9304 28.0069 31.7556 28.5648 29.6179C29.2365 27.0624 31.1296 24.8555 33.6321 23.7135C34.6613 23.2477 35.5117 22.079 35.1054 20.5244C34.886 19.6885 34.1413 18.9511 33.2881 18.7355C32.1831 18.4586 31.3435 18.8233 30.9454 19.0709C30.3008 19.4649 29.8513 20.0825 29.7104 20.7613C29.2608 22.9229 27.0969 24.3098 24.9194 23.8786C22.7202 23.4393 21.301 21.331 21.7479 19.1694C22.3302 16.353 24.1123 13.8506 26.6392 12.2987C29.2392 10.6988 32.3294 10.2436 35.3221 11.0049C39.019 11.9446 42.0225 14.8995 42.9731 18.5305Z" fill="white"/>
</svg>
