<svg width="22" height="22" viewBox="0 0 22 22" fill="none" xmlns="http://www.w3.org/2000/svg">
<path d="M1.47304 16.5C2.23127 17.816 3.91276 18.2681 5.22872 17.5099L5.23139 17.5083L5.63929 17.2727C6.40929 17.9315 7.29436 18.4424 8.24994 18.7797V19.25C8.24994 20.7688 9.48117 22 10.9999 22C12.5187 22 13.7499 20.7688 13.7499 19.25V18.7797C14.7057 18.4419 15.5908 17.9304 16.3606 17.2709L16.7703 17.5074C18.0866 18.2668 19.7693 17.8154 20.5287 16.4991C21.2881 15.1828 20.8366 13.5001 19.5203 12.7407L19.1133 12.5061C19.2966 11.5091 19.2966 10.4872 19.1133 9.49021L19.5203 9.25555C20.8366 8.49617 21.2881 6.81351 20.5287 5.49721C19.7693 4.18095 18.0866 3.72947 16.7703 4.48886L16.3624 4.72446C15.5917 4.06648 14.706 3.55652 13.7499 3.22025V2.75C13.7499 1.23123 12.5187 0 10.9999 0C9.48117 0 8.24994 1.23123 8.24994 2.75V3.22025C7.29423 3.55811 6.40912 4.06961 5.63929 4.7291L5.22954 4.4917C3.91324 3.73227 2.23058 4.18374 1.47119 5.5C0.711807 6.81626 1.16324 8.49896 2.47954 9.25835L2.88654 9.493C2.70332 10.4899 2.70332 11.5119 2.88654 12.5088L2.47954 12.7435C1.16689 13.5049 0.71692 15.1843 1.47304 16.5ZM10.9999 7.33335C13.025 7.33335 14.6666 8.97497 14.6666 11C14.6666 13.025 13.025 14.6667 10.9999 14.6667C8.97491 14.6667 7.33329 13.025 7.33329 11C7.33329 8.97497 8.97491 7.33335 10.9999 7.33335Z" fill="white"/>
</svg>
