<svg width="22" height="22" viewBox="0 0 22 22" fill="none" xmlns="http://www.w3.org/2000/svg">
<g clip-path="url(#clip0_964_4857)">
<path d="M4.58333 18.3334H11.9167C14.4439 18.3334 16.5 16.2773 16.5 13.7501V8.25008C16.5 5.72283 14.4439 3.66675 11.9167 3.66675H4.58333C2.05608 3.66675 0 5.72283 0 8.25008V13.7501C0 16.2773 2.05608 18.3334 4.58333 18.3334ZM22 7.62033V14.3294C22 15.0233 21.615 15.6467 20.9944 15.9565C20.735 16.0857 20.4563 16.1499 20.1795 16.1499C19.7936 16.1499 19.4123 16.0262 19.0896 15.7842C19.0557 15.7585 18.3333 15.0417 18.3333 15.0417V6.91541C18.3333 6.91541 19.0538 6.19216 19.0896 6.16558C19.6433 5.74941 20.372 5.6825 20.9944 5.99325C21.6168 6.304 22 6.92641 22 7.62033Z" fill="white"/>
</g>
<defs>
<clipPath id="clip0_964_4857">
<rect width="22" height="22" fill="white"/>
</clipPath>
</defs>
</svg>
