<svg width="16" height="16" viewBox="0 0 16 16" fill="none" xmlns="http://www.w3.org/2000/svg">
<g clip-path="url(#clip0_822_56746)">
<path d="M12.4375 0.620007L4.30951 8.74801C3.99907 9.05677 3.75296 9.42405 3.58543 9.82857C3.4179 10.2331 3.33227 10.6668 3.33351 11.1047V12C3.33351 12.1768 3.40375 12.3464 3.52877 12.4714C3.6538 12.5964 3.82336 12.6667 4.00018 12.6667H4.89551C5.33335 12.6679 5.76709 12.5823 6.17161 12.4148C6.57614 12.2472 6.94341 12.0011 7.25218 11.6907L15.3802 3.56267C15.7698 3.17212 15.9886 2.64299 15.9886 2.09134C15.9886 1.53969 15.7698 1.01056 15.3802 0.620007C14.984 0.24127 14.457 0.0299072 13.9088 0.0299072C13.3607 0.0299072 12.8337 0.24127 12.4375 0.620007ZM14.4375 2.62001L6.30951 10.748C5.93359 11.1216 5.42551 11.332 4.89551 11.3333H4.66684V11.1047C4.66823 10.5747 4.87855 10.0666 5.25218 9.69067L13.3802 1.56267C13.5226 1.42664 13.7119 1.35074 13.9088 1.35074C14.1058 1.35074 14.2951 1.42664 14.4375 1.56267C14.5775 1.70302 14.6561 1.89314 14.6561 2.09134C14.6561 2.28955 14.5775 2.47966 14.4375 2.62001Z" fill="#C8C8C8"/>
<path d="M15.3333 5.986C15.1565 5.986 14.987 6.05624 14.8619 6.18126C14.7369 6.30629 14.6667 6.47586 14.6667 6.65267V10H12C11.4696 10 10.9609 10.2107 10.5858 10.5858C10.2107 10.9609 10 11.4696 10 12V14.6667H3.33333C2.8029 14.6667 2.29419 14.456 1.91912 14.0809C1.54405 13.7058 1.33333 13.1971 1.33333 12.6667V3.33333C1.33333 2.8029 1.54405 2.29419 1.91912 1.91912C2.29419 1.54405 2.8029 1.33333 3.33333 1.33333H9.36133C9.53815 1.33333 9.70771 1.2631 9.83274 1.13807C9.95776 1.01305 10.028 0.843478 10.028 0.666667C10.028 0.489856 9.95776 0.320286 9.83274 0.195262C9.70771 0.0702379 9.53815 0 9.36133 0L3.33333 0C2.4496 0.00105857 1.60237 0.352588 0.97748 0.97748C0.352588 1.60237 0.00105857 2.4496 0 3.33333L0 12.6667C0.00105857 13.5504 0.352588 14.3976 0.97748 15.0225C1.60237 15.6474 2.4496 15.9989 3.33333 16H10.8953C11.3333 16.0013 11.7671 15.9156 12.1718 15.7481C12.5764 15.5806 12.9438 15.3345 13.2527 15.024L15.0233 13.252C15.3338 12.9432 15.58 12.576 15.7477 12.1715C15.9153 11.767 16.0011 11.3332 16 10.8953V6.65267C16 6.47586 15.9298 6.30629 15.8047 6.18126C15.6797 6.05624 15.5101 5.986 15.3333 5.986ZM12.31 14.0813C12.042 14.3487 11.7031 14.5337 11.3333 14.6147V12C11.3333 11.8232 11.4036 11.6536 11.5286 11.5286C11.6536 11.4036 11.8232 11.3333 12 11.3333H14.6167C14.5342 11.7023 14.3493 12.0406 14.0833 12.3093L12.31 14.0813Z" fill="#C8C8C8"/>
</g>
<defs>
<clipPath id="clip0_822_56746">
<rect width="16" height="16" fill="white"/>
</clipPath>
</defs>
</svg>
