<svg width="20" height="20" viewBox="0 0 20 20" fill="none" xmlns="http://www.w3.org/2000/svg">
<g clip-path="url(#clip0_930_26274)">
<path d="M15.8333 4.99984H10.8333C10.0723 5.00263 9.32673 5.21431 8.6778 5.61181C8.02888 6.00931 7.50155 6.57735 7.15333 7.254C6.65366 6.87466 6.04402 6.66842 5.41667 6.6665C4.64312 6.6665 3.90125 6.9738 3.35427 7.52078C2.80729 8.06776 2.5 8.80962 2.5 9.58317C2.50244 10.0165 2.60241 10.4437 2.7925 10.8332H1.66667V2.49984C1.66667 2.27882 1.57887 2.06686 1.42259 1.91058C1.26631 1.7543 1.05435 1.6665 0.833333 1.6665C0.61232 1.6665 0.400358 1.7543 0.244078 1.91058C0.0877974 2.06686 0 2.27882 0 2.49984L0 17.4998C0 17.7209 0.0877974 17.9328 0.244078 18.0891C0.400358 18.2454 0.61232 18.3332 0.833333 18.3332C1.05435 18.3332 1.26631 18.2454 1.42259 18.0891C1.57887 17.9328 1.66667 17.7209 1.66667 17.4998V15.8332H18.3333V17.4998C18.3333 17.7209 18.4211 17.9328 18.5774 18.0891C18.7337 18.2454 18.9457 18.3332 19.1667 18.3332C19.3877 18.3332 19.5996 18.2454 19.7559 18.0891C19.9122 17.9328 20 17.7209 20 17.4998V9.1665C19.9987 8.06184 19.5593 7.0028 18.7782 6.22169C17.997 5.44057 16.938 5.00116 15.8333 4.99984ZM8.33333 9.1665C8.33333 8.50346 8.59672 7.86758 9.06557 7.39874C9.53441 6.9299 10.1703 6.6665 10.8333 6.6665H15.8333C16.4964 6.6665 17.1323 6.9299 17.6011 7.39874C18.0699 7.86758 18.3333 8.50346 18.3333 9.1665V10.8332H8.33333V9.1665ZM4.16667 9.58317C4.16667 9.33594 4.23998 9.09427 4.37733 8.88871C4.51468 8.68315 4.7099 8.52293 4.93831 8.42832C5.16672 8.33371 5.41805 8.30896 5.66053 8.35719C5.90301 8.40542 6.12573 8.52447 6.30055 8.69929C6.47537 8.8741 6.59442 9.09683 6.64265 9.33931C6.69088 9.58178 6.66613 9.83312 6.57152 10.0615C6.47691 10.2899 6.31669 10.4852 6.11113 10.6225C5.90557 10.7599 5.66389 10.8332 5.41667 10.8332C5.08515 10.8332 4.7672 10.7015 4.53278 10.4671C4.29836 10.2326 4.16667 9.91469 4.16667 9.58317ZM1.66667 14.1665V12.4998H18.3333V14.1665H1.66667Z" fill="#7BB7F7"/>
</g>
<defs>
<clipPath id="clip0_930_26274">
<rect width="20" height="20" fill="white"/>
</clipPath>
</defs>
</svg>
