<svg width="20" height="20" viewBox="0 0 20 20" fill="none" xmlns="http://www.w3.org/2000/svg">
<g clip-path="url(#clip0_71_1713)">
<path d="M9.99967 16.6667C11.7672 16.6647 13.4617 15.9617 14.7115 14.7119C15.9613 13.462 16.6644 11.7675 16.6663 10V6.66667C16.6663 4.89856 15.964 3.20286 14.7137 1.95262C13.4635 0.702379 11.7678 0 9.99967 0C8.23156 0 6.53587 0.702379 5.28563 1.95262C4.03539 3.20286 3.33301 4.89856 3.33301 6.66667V10C3.33499 11.7675 4.03801 13.462 5.28782 14.7119C6.53763 15.9617 8.23217 16.6647 9.99967 16.6667ZM9.99967 1.66667C11.1801 1.66886 12.3218 2.08822 13.223 2.85066C14.1242 3.61311 14.727 4.66955 14.9247 5.83333H12.4997C12.2787 5.83333 12.0667 5.92113 11.9104 6.07741C11.7541 6.23369 11.6663 6.44565 11.6663 6.66667C11.6663 6.88768 11.7541 7.09964 11.9104 7.25592C12.0667 7.4122 12.2787 7.5 12.4997 7.5H14.9997V9.16667H12.4997C12.2787 9.16667 12.0667 9.25447 11.9104 9.41074C11.7541 9.56703 11.6663 9.77899 11.6663 10C11.6663 10.221 11.7541 10.433 11.9104 10.5893C12.0667 10.7455 12.2787 10.8333 12.4997 10.8333H14.9247C14.7288 11.9979 14.1266 13.0554 13.225 13.8181C12.3233 14.5807 11.1806 14.9992 9.99967 14.9992C8.81874 14.9992 7.67602 14.5807 6.77438 13.8181C5.87274 13.0554 5.27054 11.9979 5.07467 10.8333H7.49967C7.72069 10.8333 7.93265 10.7455 8.08893 10.5893C8.24521 10.433 8.33301 10.221 8.33301 10C8.33301 9.77899 8.24521 9.56703 8.08893 9.41074C7.93265 9.25447 7.72069 9.16667 7.49967 9.16667H4.99967V7.5H7.49967C7.72069 7.5 7.93265 7.4122 8.08893 7.25592C8.24521 7.09964 8.33301 6.88768 8.33301 6.66667C8.33301 6.44565 8.24521 6.23369 8.08893 6.07741C7.93265 5.92113 7.72069 5.83333 7.49967 5.83333H5.07467C5.2724 4.66955 5.87511 3.61311 6.77632 2.85066C7.67752 2.08822 8.81922 1.66886 9.99967 1.66667Z" fill="#8C8C8C"/>
<path d="M19.1667 10C18.9457 10 18.7337 10.0878 18.5774 10.2441C18.4211 10.4004 18.3333 10.6123 18.3333 10.8333C18.3311 12.8218 17.5402 14.7282 16.1342 16.1342C14.7282 17.5402 12.8218 18.3311 10.8333 18.3333H9.16667C7.17829 18.3309 5.27204 17.54 3.86604 16.134C2.46005 14.728 1.66909 12.8217 1.66667 10.8333C1.66667 10.6123 1.57887 10.4004 1.42259 10.2441C1.26631 10.0878 1.05435 10 0.833333 10C0.61232 10 0.400358 10.0878 0.244078 10.2441C0.0877974 10.4004 0 10.6123 0 10.8333C0.00286706 13.2636 0.969559 15.5935 2.68802 17.312C4.40648 19.0304 6.7364 19.9971 9.16667 20H10.8333C13.2636 19.9971 15.5935 19.0304 17.312 17.312C19.0304 15.5935 19.9971 13.2636 20 10.8333C20 10.6123 19.9122 10.4004 19.7559 10.2441C19.5996 10.0878 19.3877 10 19.1667 10Z" fill="#8C8C8C"/>
</g>
<defs>
<clipPath id="clip0_71_1713">
<rect width="20" height="20" fill="white"/>
</clipPath>
</defs>
</svg>
