<svg width="22" height="20" viewBox="0 0 22 20" fill="none" xmlns="http://www.w3.org/2000/svg">
<path d="M7.92822 9.15C7.45878 9.15 7.07822 9.53056 7.07822 10C7.07822 10.4694 7.45878 10.85 7.92822 10.85V9.15ZM7.93822 10.85C8.40766 10.85 8.78822 10.4694 8.78822 10C8.78822 9.53056 8.40766 9.15 7.93822 9.15V10.85ZM13.9282 9.15C13.4588 9.15 13.0782 9.53056 13.0782 10C13.0782 10.4694 13.4588 10.85 13.9282 10.85V9.15ZM13.9382 10.85C14.4077 10.85 14.7882 10.4694 14.7882 10C14.7882 9.53056 14.4077 9.15 13.9382 9.15V10.85ZM9.36554 13.2711C8.963 13.0296 8.44088 13.1601 8.19935 13.5627C7.95783 13.9652 8.08836 14.4873 8.4909 14.7289L9.36554 13.2711ZM13.3655 14.7289C13.7681 14.4873 13.8986 13.9652 13.6571 13.5627C13.4156 13.1601 12.8934 13.0296 12.4909 13.2711L13.3655 14.7289ZM18.5927 3.76992C18.2999 3.40295 17.7651 3.34278 17.3981 3.63553C17.0312 3.92828 16.971 4.4631 17.2638 4.83008L18.5927 3.76992ZM19.7282 8.2L18.8938 8.36174C18.9447 8.6247 19.1166 8.84825 19.3577 8.965L19.7282 8.2ZM19.7282 11.8L19.3577 11.035C19.122 11.1492 18.952 11.3657 18.8971 11.6218L19.7282 11.8ZM2.12822 11.8L2.95933 11.6218C2.90442 11.3657 2.73448 11.1492 2.49873 11.035L2.12822 11.8ZM1 10H1.85H1ZM2.12822 8.2L2.49873 8.965C2.73713 8.84954 2.90807 8.62953 2.96105 8.37L2.12822 8.2ZM10.9282 1V0.149998L10.9265 0.150002L10.9282 1ZM11.7782 5C11.7782 4.53056 11.3977 4.15 10.9282 4.15C10.4588 4.15 10.0782 4.53056 10.0782 5H11.7782ZM7.92822 10.85H7.93822V9.15H7.92822V10.85ZM13.9282 10.85H13.9382V9.15H13.9282V10.85ZM8.4909 14.7289C9.13918 15.1178 9.99419 15.35 10.9282 15.35V13.65C10.2623 13.65 9.71726 13.4822 9.36554 13.2711L8.4909 14.7289ZM10.9282 15.35C11.8623 15.35 12.7173 15.1178 13.3655 14.7289L12.4909 13.2711C12.1392 13.4822 11.5942 13.65 10.9282 13.65V15.35ZM17.2638 4.83008C18.0842 5.85849 18.6434 7.07022 18.8938 8.36174L20.5627 8.03826C20.2601 6.47734 19.5842 5.01285 18.5927 3.76992L17.2638 4.83008ZM19.3577 8.965C19.5521 9.05917 19.7161 9.2062 19.8309 9.38925L21.2713 8.4864C20.987 8.03275 20.5806 7.66837 20.0987 7.435L19.3577 8.965ZM19.8309 9.38925C19.9456 9.5723 20.0064 9.78397 20.0064 10H21.7064C21.7064 9.46461 21.5556 8.94004 21.2713 8.4864L19.8309 9.38925ZM20.0064 10C20.0064 10.216 19.9456 10.4277 19.8309 10.6108L21.2713 11.5136C21.5556 11.06 21.7064 10.5354 21.7064 10H20.0064ZM19.8309 10.6108C19.7161 10.7938 19.5521 10.9408 19.3577 11.035L20.0987 12.565C20.5806 12.3316 20.987 11.9672 21.2713 11.5136L19.8309 10.6108ZM18.8971 11.6218C18.5062 13.4451 17.5018 15.0792 16.0516 16.2515L17.1202 17.5736C18.873 16.1568 20.0869 14.1818 20.5593 11.9782L18.8971 11.6218ZM16.0516 16.2515C14.6013 17.4237 12.793 18.0632 10.9282 18.0632V19.7632C13.1819 19.7632 15.3675 18.9903 17.1202 17.5736L16.0516 16.2515ZM10.9282 18.0632C9.06346 18.0632 7.2551 17.4237 5.80487 16.2515L4.7362 17.5736C6.48893 18.9903 8.67449 19.7632 10.9282 19.7632V18.0632ZM5.80487 16.2515C4.35464 15.0792 3.35027 13.4451 2.95933 11.6218L1.29711 11.9782C1.76959 14.1818 2.98347 16.1568 4.7362 17.5736L5.80487 16.2515ZM2.49873 11.035C2.3043 10.9408 2.14032 10.7938 2.02559 10.6108L0.585149 11.5136C0.869489 11.9672 1.27586 12.3316 1.75771 12.565L2.49873 11.035ZM2.02559 10.6108C1.91085 10.4277 1.85 10.216 1.85 10H0.15C0.15 10.5354 0.300808 11.06 0.585149 11.5136L2.02559 10.6108ZM1.85 10C1.85 9.78397 1.91085 9.5723 2.02559 9.38925L0.585149 8.4864C0.300808 8.94004 0.15 9.46461 0.15 10H1.85ZM2.02559 9.38925C2.14032 9.2062 2.3043 9.05917 2.49873 8.965L1.75771 7.435C1.27586 7.66837 0.869489 8.03275 0.585149 8.4864L2.02559 9.38925ZM2.96105 8.37C3.33619 6.53218 4.33377 4.88001 5.7855 3.69223L4.70899 2.3765C2.95446 3.81203 1.74878 5.80883 1.29539 8.03L2.96105 8.37ZM5.7855 3.69223C7.23722 2.50445 9.05422 1.85378 10.9299 1.85L10.9265 0.150002C8.65954 0.154578 6.46353 0.94097 4.70899 2.3765L5.7855 3.69223ZM10.9282 1.85C11.7795 1.85 12.4735 2.08501 12.9316 2.4148C13.3854 2.74153 13.5782 3.13032 13.5782 3.5H15.2782C15.2782 2.46968 14.7211 1.60847 13.9249 1.0352C13.1329 0.464992 12.0769 0.15 10.9282 0.15V1.85ZM13.5782 3.5C13.5782 4.61139 12.8964 5.15 12.4282 5.15V6.85C14.1601 6.85 15.2782 5.18861 15.2782 3.5H13.5782ZM12.4282 5.15C12.1578 5.15 11.9484 5.08034 11.8346 5.00789C11.726 4.93882 11.7782 4.92697 11.7782 5H10.0782C10.0782 5.67303 10.4804 6.16118 10.9219 6.44211C11.358 6.71967 11.8987 6.85 12.4282 6.85V5.15Z" fill="#7BB7F7"/>
</svg>
