<svg width="22" height="20" viewBox="0 0 22 20" fill="none" xmlns="http://www.w3.org/2000/svg">
<path d="M7.92822 9C7.37594 9 6.92822 9.44771 6.92822 10C6.92822 10.5523 7.37594 11 7.92822 11V9ZM7.93822 11C8.49051 11 8.93822 10.5523 8.93822 10C8.93822 9.44771 8.49051 9 7.93822 9V11ZM13.9282 9C13.3759 9 12.9282 9.44771 12.9282 10C12.9282 10.5523 13.3759 11 13.9282 11V9ZM13.9382 11C14.4905 11 14.9382 10.5523 14.9382 10C14.9382 9.44771 14.4905 9 13.9382 9V11ZM9.44272 13.1425C8.96914 12.8584 8.35488 13.0119 8.07073 13.4855C7.78658 13.9591 7.94015 14.5733 8.41373 14.8575L9.44272 13.1425ZM13.4427 14.8575C13.9163 14.5733 14.0699 13.9591 13.7857 13.4855C13.5016 13.0119 12.8873 12.8584 12.4137 13.1425L13.4427 14.8575ZM18.7099 3.67638C18.3655 3.24464 17.7363 3.17386 17.3046 3.51827C16.8729 3.86269 16.8021 4.49188 17.1465 4.92362L18.7099 3.67638ZM19.7282 8.2L18.7465 8.39029C18.8065 8.69964 19.0087 8.96264 19.2923 9.1L19.7282 8.2ZM19.7282 11.8L19.2923 10.9C19.015 11.0343 18.815 11.289 18.7504 11.5904L19.7282 11.8ZM2.12822 11.8L3.106 11.5904C3.04139 11.289 2.84146 11.0343 2.56411 10.9L2.12822 11.8ZM1 10H2H1ZM2.12822 8.2L2.56411 9.1C2.84458 8.96416 3.04569 8.70534 3.10802 8.4L2.12822 8.2ZM10.9282 1V-2.02656e-06L10.9262 2.02656e-06L10.9282 1ZM11.9282 5C11.9282 4.44772 11.4805 4 10.9282 4C10.3759 4 9.92822 4.44772 9.92822 5H11.9282ZM7.92822 11H7.93822V9H7.92822V11ZM13.9282 11H13.9382V9H13.9282V11ZM8.41373 14.8575C9.08817 15.2622 9.97054 15.5 10.9282 15.5V13.5C10.2859 13.5 9.76827 13.3378 9.44272 13.1425L8.41373 14.8575ZM10.9282 15.5C11.8859 15.5 12.7683 15.2622 13.4427 14.8575L12.4137 13.1425C12.0882 13.3378 11.5705 13.5 10.9282 13.5V15.5ZM17.1465 4.92362C17.9518 5.9331 18.5008 7.12253 18.7465 8.39029L20.7099 8.00971C20.4028 6.42502 19.7166 4.93824 18.7099 3.67638L17.1465 4.92362ZM19.2923 9.1C19.4614 9.18188 19.604 9.30974 19.7038 9.46891L21.3984 8.40673C21.0991 7.92921 20.6713 7.54565 20.1641 7.3L19.2923 9.1ZM19.7038 9.46891C19.8035 9.62809 19.8564 9.81215 19.8564 10H21.8564C21.8564 9.43643 21.6977 8.88425 21.3984 8.40673L19.7038 9.46891ZM19.8564 10C19.8564 10.1879 19.8035 10.3719 19.7038 10.5311L21.3984 11.5933C21.6977 11.1157 21.8564 10.5636 21.8564 10H19.8564ZM19.7038 10.5311C19.604 10.6903 19.4614 10.8181 19.2923 10.9L20.1641 12.7C20.6713 12.4543 21.0991 12.0708 21.3984 11.5933L19.7038 10.5311ZM18.7504 11.5904C18.3667 13.3801 17.3808 14.9842 15.9573 16.1348L17.2145 17.6902C18.994 16.2519 20.2263 14.2468 20.706 12.0096L18.7504 11.5904ZM15.9573 16.1348C14.5337 17.2855 12.7587 17.9132 10.9282 17.9132V19.9132C13.2163 19.9132 15.4351 19.1286 17.2145 17.6902L15.9573 16.1348ZM10.9282 17.9132C9.09778 17.9132 7.3227 17.2855 5.89917 16.1348L4.6419 17.6902C6.42132 19.1286 8.64017 19.9132 10.9282 19.9132V17.9132ZM5.89917 16.1348C4.47563 14.9842 3.48974 13.3801 3.106 11.5904L1.15044 12.0096C1.63012 14.2468 2.86248 16.2519 4.6419 17.6902L5.89917 16.1348ZM2.56411 10.9C2.39504 10.8181 2.25245 10.6903 2.15268 10.5311L0.458051 11.5933C0.757356 12.0708 1.18512 12.4543 1.69233 12.7L2.56411 10.9ZM2.15268 10.5311C2.05291 10.3719 2 10.1879 2 10H0C0 10.5636 0.158746 11.1157 0.458051 11.5933L2.15268 10.5311ZM2 10C2 9.81214 2.05291 9.62809 2.15268 9.46891L0.458051 8.40673C0.158746 8.88426 0 9.43643 0 10H2ZM2.15268 9.46891C2.25245 9.30974 2.39504 9.18188 2.56411 9.1L1.69233 7.3C1.18512 7.54565 0.757356 7.92921 0.458051 8.40673L2.15268 9.46891ZM3.10802 8.4C3.47625 6.596 4.45548 4.97424 5.88048 3.80832L4.61401 2.26041C2.83275 3.7178 1.60872 5.74501 1.14842 8L3.10802 8.4ZM5.88048 3.80832C7.30549 2.64241 9.08905 2.00371 10.9302 2L10.9262 2.02656e-06C8.62471 0.00464767 6.39527 0.803016 4.61401 2.26041L5.88048 3.80832ZM10.9282 2C11.7533 2 12.4153 2.22795 12.8439 2.53653C13.2675 2.84151 13.4282 3.18861 13.4282 3.5H15.4282C15.4282 2.41139 14.8389 1.50849 14.0125 0.913466C13.1911 0.32205 12.1031 0 10.9282 0V2ZM13.4282 3.5C13.4282 4.56045 12.7849 5 12.4282 5V7C14.2716 7 15.4282 5.23955 15.4282 3.5H13.4282ZM12.4282 5C12.1806 5 12.0005 4.93569 11.9151 4.88134C11.876 4.85643 11.8776 4.84728 11.892 4.86971C11.9102 4.89814 11.9282 4.9463 11.9282 5H9.92822C9.92822 5.73886 10.3705 6.26903 10.8413 6.56866C11.3059 6.86431 11.8758 7 12.4282 7V5Z" fill="#8C8C8C"/>
</svg>
