<svg width="20" height="20" viewBox="0 0 20 20" fill="none" xmlns="http://www.w3.org/2000/svg">
<g clip-path="url(#clip0_71_1721)">
<path d="M12.4999 5C12.4999 2.2425 10.2574 0 7.49986 0C4.74236 0 2.49986 2.2425 2.49986 5C2.49986 7.7575 4.74236 10 7.49986 10C10.2574 10 12.4999 7.7575 12.4999 5ZM7.49986 8.33333C5.66152 8.33333 4.16652 6.83833 4.16652 5C4.16652 3.16167 5.66152 1.66667 7.49986 1.66667C9.33819 1.66667 10.8332 3.16167 10.8332 5C10.8332 6.83833 9.33819 8.33333 7.49986 8.33333ZM7.49319 12.4483C7.54986 12.905 7.22652 13.3208 6.76902 13.3783C3.85986 13.7417 1.66569 16.2292 1.66569 19.1667C1.66569 19.6267 1.29236 20 0.832357 20C0.372357 20 -0.000976562 19.6267 -0.000976562 19.1667C-0.000976562 15.3908 2.82069 12.1917 6.56236 11.725C7.01402 11.6675 7.43486 11.9917 7.49236 12.4492L7.49319 12.4483ZM18.9132 15.9442L18.1015 15.4758C18.2399 15.0617 18.3332 14.6267 18.3332 14.1658C18.3332 13.705 18.2407 13.27 18.1015 12.8558L18.9132 12.3875C19.3115 12.1575 19.4482 11.6475 19.2182 11.2492C18.9874 10.85 18.479 10.7125 18.0799 10.9442L17.269 11.4125C16.6815 10.7508 15.899 10.2667 14.9999 10.0842V9.16667C14.9999 8.70667 14.6265 8.33333 14.1665 8.33333C13.7065 8.33333 13.3332 8.70667 13.3332 9.16667V10.0842C12.434 10.2675 11.6515 10.7517 11.064 11.4125L10.2532 10.9442C9.85319 10.7133 9.34486 10.85 9.11486 11.2492C8.88486 11.6483 9.02152 12.1575 9.41986 12.3875L10.2315 12.8558C10.0932 13.27 9.99986 13.705 9.99986 14.1658C9.99986 14.6267 10.0924 15.0617 10.2315 15.4758L9.41986 15.9442C9.02152 16.1742 8.88486 16.6842 9.11486 17.0825C9.26986 17.35 9.54902 17.4992 9.83736 17.4992C9.97819 17.4992 10.1215 17.4633 10.2532 17.3875L11.064 16.9192C11.6515 17.5808 12.434 18.065 13.3332 18.2475V19.165C13.3332 19.625 13.7065 19.9983 14.1665 19.9983C14.6265 19.9983 14.9999 19.625 14.9999 19.165V18.2475C15.899 18.0642 16.6815 17.58 17.269 16.9192L18.0799 17.3875C18.2115 17.4633 18.3549 17.4992 18.4957 17.4992C18.784 17.4992 19.064 17.35 19.2182 17.0825C19.4482 16.6833 19.3115 16.1742 18.9132 15.9442ZM14.1665 16.6658C12.7882 16.6658 11.6665 15.5442 11.6665 14.1658C11.6665 12.7875 12.7882 11.6658 14.1665 11.6658C15.5449 11.6658 16.6665 12.7875 16.6665 14.1658C16.6665 15.5442 15.5449 16.6658 14.1665 16.6658Z" fill="#8C8C8C"/>
</g>
<defs>
<clipPath id="clip0_71_1721">
<rect width="20" height="20" fill="white"/>
</clipPath>
</defs>
</svg>
