<svg width="20" height="20" viewBox="0 0 20 20" fill="none" xmlns="http://www.w3.org/2000/svg">
<g clip-path="url(#clip0_875_2825)">
<path d="M10.0002 16.6667C11.7677 16.6647 13.4622 15.9617 14.712 14.7119C15.9618 13.462 16.6648 11.7675 16.6668 10V6.66667C16.6668 4.89856 15.9645 3.20286 14.7142 1.95262C13.464 0.702379 11.7683 0 10.0002 0C8.23205 0 6.53636 0.702379 5.28612 1.95262C4.03588 3.20286 3.3335 4.89856 3.3335 6.66667V10C3.33548 11.7675 4.0385 13.462 5.28831 14.7119C6.53812 15.9617 8.23266 16.6647 10.0002 16.6667ZM10.0002 1.66667C11.1806 1.66886 12.3223 2.08822 13.2235 2.85066C14.1247 3.61311 14.7274 4.66955 14.9252 5.83333H12.5002C12.2791 5.83333 12.0672 5.92113 11.9109 6.07741C11.7546 6.23369 11.6668 6.44565 11.6668 6.66667C11.6668 6.88768 11.7546 7.09964 11.9109 7.25592C12.0672 7.4122 12.2791 7.5 12.5002 7.5H15.0002V9.16667H12.5002C12.2791 9.16667 12.0672 9.25447 11.9109 9.41074C11.7546 9.56703 11.6668 9.77899 11.6668 10C11.6668 10.221 11.7546 10.433 11.9109 10.5893C12.0672 10.7455 12.2791 10.8333 12.5002 10.8333H14.9252C14.7293 11.9979 14.1271 13.0554 13.2255 13.8181C12.3238 14.5807 11.1811 14.9992 10.0002 14.9992C8.81923 14.9992 7.67651 14.5807 6.77487 13.8181C5.87323 13.0554 5.27102 11.9979 5.07516 10.8333H7.50016C7.72118 10.8333 7.93314 10.7455 8.08942 10.5893C8.2457 10.433 8.3335 10.221 8.3335 10C8.3335 9.77899 8.2457 9.56703 8.08942 9.41074C7.93314 9.25447 7.72118 9.16667 7.50016 9.16667H5.00016V7.5H7.50016C7.72118 7.5 7.93314 7.4122 8.08942 7.25592C8.2457 7.09964 8.3335 6.88768 8.3335 6.66667C8.3335 6.44565 8.2457 6.23369 8.08942 6.07741C7.93314 5.92113 7.72118 5.83333 7.50016 5.83333H5.07516C5.27289 4.66955 5.8756 3.61311 6.7768 2.85066C7.67801 2.08822 8.8197 1.66886 10.0002 1.66667Z" fill="#8C8C8C"/>
<path d="M19.1667 10C18.9457 10 18.7337 10.0878 18.5774 10.2441C18.4211 10.4004 18.3333 10.6123 18.3333 10.8333C18.3311 12.8218 17.5402 14.7282 16.1342 16.1342C14.7282 17.5402 12.8218 18.3311 10.8333 18.3333H9.16667C7.17829 18.3309 5.27204 17.54 3.86604 16.134C2.46005 14.728 1.66909 12.8217 1.66667 10.8333C1.66667 10.6123 1.57887 10.4004 1.42259 10.2441C1.26631 10.0878 1.05435 10 0.833333 10C0.61232 10 0.400358 10.0878 0.244078 10.2441C0.0877974 10.4004 0 10.6123 0 10.8333C0.00286706 13.2636 0.969559 15.5935 2.68802 17.312C4.40648 19.0304 6.7364 19.9971 9.16667 20H10.8333C13.2636 19.9971 15.5935 19.0304 17.312 17.312C19.0304 15.5935 19.9971 13.2636 20 10.8333C20 10.6123 19.9122 10.4004 19.7559 10.2441C19.5996 10.0878 19.3877 10 19.1667 10Z" fill="#8C8C8C"/>
</g>
<defs>
<clipPath id="clip0_875_2825">
<rect width="20" height="20" fill="white"/>
</clipPath>
</defs>
</svg>
